<svg width="30" height="30" viewBox="0 0 30 30" fill="none" xmlns="http://www.w3.org/2000/svg">
<path d="M14.9766 29.4141C7.54687 29.4141 0 27.8203 0 24.7734C0 22.0547 5.8125 20.9297 8.29688 20.5781H8.39062C8.74219 20.5781 9.04688 20.8359 9.09375 21.1875C9.11719 21.375 9.07031 21.5625 8.95312 21.7031C8.83594 21.8438 8.67188 21.9609 8.48438 21.9844C3.30469 22.7344 1.38281 24.0938 1.38281 24.7969C1.38281 26.1094 6.67969 28.0312 14.9531 28.0312C23.2266 28.0312 28.5234 26.1094 28.5234 24.7969C28.5234 24.0938 26.5781 22.7344 21.3516 21.9844C21.1641 21.9609 21 21.8672 20.8828 21.7031C20.7656 21.5625 20.7187 21.375 20.7422 21.1875C20.7891 20.8359 21.0937 20.5781 21.4453 20.5781H21.5391C24.0469 20.9297 29.9062 22.0547 29.9062 24.7734C29.9297 27.7969 22.4062 29.4141 14.9766 29.4141ZM14.4844 24.4453C14.1328 24.1172 6.02344 16.4531 6.02344 8.92969C6.02344 4.00781 10.0312 0 14.9531 0C19.875 0 23.8828 4.00781 23.8828 8.92969C23.8828 16.2422 15.7734 24.0938 15.4219 24.4219L14.9531 24.8906L14.4844 24.4453ZM14.9766 1.40625C10.8281 1.40625 7.45312 4.78125 7.45312 8.92969C7.45312 14.8125 13.1953 21.1172 14.9766 22.9219C16.7812 21.0703 22.5234 14.6484 22.5234 8.92969C22.5 4.80469 19.125 1.40625 14.9766 1.40625ZM14.9766 12.9141C12.6328 12.9141 10.7344 11.0156 10.7344 8.67188C10.7344 6.32812 12.6328 4.42969 14.9766 4.42969C17.3203 4.42969 19.2187 6.32812 19.2187 8.67188C19.2187 11.0156 17.3203 12.9141 14.9766 12.9141ZM14.9766 5.83594C13.4062 5.83594 12.1406 7.10156 12.1406 8.67188C12.1406 10.2422 13.4062 11.5078 14.9766 11.5078C16.5469 11.5078 17.8125 10.2422 17.8125 8.67188C17.8125 7.10156 16.5234 5.83594 14.9766 5.83594Z" fill="#444444"/>
</svg>
