<svg width="62" height="56" viewBox="0 0 62 56" fill="none" xmlns="http://www.w3.org/2000/svg">
<path d="M60.8461 28.119C60.0601 19.3952 55.9188 12.3412 50.4221 7.53607C44.8655 2.6739 37.9137 0.00514212 31.3287 0C24.4938 0.00128553 20.2775 1.02457 17.4863 2.43994C14.7282 3.81745 13.3965 5.72233 12.6652 6.84545C9.67658 7.42094 6.69986 9.46622 4.33757 12.3728C1.82936 15.4794 0.00653905 19.633 0 24.1978C0 29.1928 0.982311 33.4137 2.94245 36.5529C4.68063 39.3519 7.2156 41.1911 10.2331 41.859C10.4315 43.2097 10.9064 44.7162 11.8887 46.0937C12.9074 47.5306 14.297 48.5766 15.9398 49.2407C17.5847 49.9084 19.4913 50.2171 21.6595 50.2195H30.7517C30.9757 50.895 31.2492 51.5388 31.6256 52.1068C32.551 53.5045 33.8839 54.4859 35.4805 55.1007C37.0848 55.7192 38.9752 55.9989 41.1713 56C42.2501 56 43.272 55.9419 44.1396 55.8926H44.1427C44.7646 55.8534 45.2998 55.8256 45.6804 55.8256C46.8266 55.8256 47.9237 55.4968 48.8673 54.8516C49.811 54.2091 50.5937 53.2567 51.1288 52.0867C51.3991 51.4934 51.5771 50.8712 51.7101 50.2438C53.7356 49.7973 55.416 48.9246 56.7242 47.8116C58.2576 46.5088 59.3116 44.9391 60.028 43.5136C61.4274 40.7209 61.9978 37.622 62 34.7457C61.9977 32.2942 61.5774 30.0111 60.8461 28.119ZM57.6238 41.8336C57.0608 42.953 56.2492 44.1534 55.091 45.1361C53.9308 46.1177 52.422 46.9044 50.3611 47.1814L49.2084 47.3345L49.1236 48.6993C49.0883 49.2888 48.9328 49.9516 48.6711 50.5219C48.3677 51.1758 47.9645 51.6592 47.4701 51.9981C46.9736 52.3347 46.3795 52.5281 45.6804 52.5292C45.1871 52.5292 44.6251 52.5635 44.0022 52.6L44.235 52.5875L44.0032 52.6C43.138 52.6508 42.1652 52.7052 41.1713 52.7052C38.5142 52.7102 36.5336 52.2258 35.2684 51.4391C34.6325 51.0483 34.1713 50.5955 33.8293 50.0806C33.4894 49.5632 33.2588 48.975 33.1291 48.2402L32.8986 46.9236H21.6596C19.7209 46.9236 18.1114 46.639 16.8492 46.1268C15.585 45.6095 14.6768 44.8873 14.0301 43.9766C13.1873 42.7902 12.9374 41.5026 12.9053 40.3718L12.8678 38.9324L11.6539 38.7833C8.80592 38.4148 6.70301 36.9944 5.19007 34.5962C3.6856 32.1944 2.79351 28.697 2.79351 24.198C2.78697 20.7096 4.23137 17.2741 6.35886 14.6458C8.47352 12.0099 11.2583 10.2644 13.5541 10.0089L14.0806 9.94429L14.4398 9.48636C14.6006 9.27896 14.7282 9.07913 14.8387 8.91473C15.5635 7.84716 16.3056 6.65705 18.5928 5.46679C20.8748 4.30181 24.7264 3.29253 31.3287 3.29381C37.2715 3.28867 43.7139 5.75518 48.7579 10.181C53.8107 14.6155 57.45 20.9156 58.0935 28.6895L58.1181 28.9891L58.2298 29.2587C58.8163 30.655 59.2099 32.6308 59.2065 34.7456C59.2065 37.1096 58.7294 39.6342 57.6238 41.8336Z" fill="url(#paint0_linear_562_2284)"/>
<path d="M43.2352 12.3475H46.1486C46.7749 12.3475 47.2842 11.7416 47.2842 10.9801C47.2842 10.2352 46.7749 9.63318 46.1486 9.63318H43.2352C42.5896 9.63318 42.0781 10.2354 42.0781 10.9801C42.0782 11.7416 42.5896 12.3475 43.2352 12.3475Z" fill="url(#paint1_linear_562_2284)"/>
<path d="M29.5723 25.33C29.5723 26.0851 30.0869 26.6961 30.7228 26.6961C31.3479 26.6961 31.8701 26.0853 31.8701 25.33V17.9282C31.8701 17.5855 31.956 17.5057 31.9774 17.4741C32.3431 17.0504 33.7059 17.0504 34.6613 17.0504L34.6978 17.0656H42.233C42.3788 17.0656 42.5333 17.0504 42.7059 17.0504C43.3129 17.0189 44.0624 16.9884 44.3766 17.3464C44.576 17.5765 44.6919 18.0877 44.6919 18.773V23.3165V23.5188C44.6672 24.4535 44.6628 26.027 45.555 27.0957C45.9025 27.5182 46.548 28.019 47.601 28.019H53.5213C54.1432 28.019 54.6538 27.4144 54.6538 26.6542C54.6538 25.9117 54.1432 25.2945 53.5213 25.2945H47.601L47.1871 25.1794C46.9769 24.9227 46.9908 23.9893 46.9908 23.5415V18.7729C46.9908 17.3007 46.6414 16.1623 45.9744 15.4021C44.947 14.2397 43.5498 14.2878 42.6287 14.3333C42.4764 14.3333 42.3499 14.3397 42.233 14.3397H38.435C38.48 13.9652 38.48 13.5884 38.4682 13.2494V9.30683C38.4682 8.56565 37.9513 7.95331 37.3241 7.95331C36.684 7.95331 36.1822 8.56551 36.1822 9.30683V13.2708C36.1822 13.5882 36.1822 14.0904 36.1252 14.2207C36.1252 14.2207 35.9677 14.3395 35.3607 14.3395C35.186 14.3395 34.9983 14.3395 34.7935 14.3395C33.2289 14.3167 31.4297 14.3104 30.3596 15.5499C30.01 15.9673 29.5725 16.7223 29.5725 17.9279V25.33H29.5723Z" fill="url(#paint2_linear_562_2284)"/>
<path d="M25.8752 14.2461C26.5175 14.2461 27.0323 13.6251 27.0323 12.8852V10.9435H28.9613C29.5854 10.9435 30.1011 10.3338 30.1011 9.57879C30.1011 8.84147 29.5854 8.22284 28.9613 8.22284H27.0323V6.72777C27.0323 5.98031 26.5175 5.36682 25.8752 5.36682C25.2511 5.36682 24.7354 5.98016 24.7354 6.72777V12.8852C24.7354 13.6251 25.2511 14.2461 25.8752 14.2461Z" fill="url(#paint3_linear_562_2284)"/>
<path d="M13.4222 16.242H18.2015C18.9811 16.2093 19.7231 16.2093 20.0727 16.6429C20.3826 16.9997 20.5531 17.8015 20.5531 18.9526V24.2448C20.5531 24.9936 21.0657 25.6084 21.7133 25.6084C22.3374 25.6084 22.8586 24.9937 22.8586 24.2448V23.119H24.6612C25.297 23.119 25.8043 22.5081 25.8043 21.7606C25.8043 21.0106 25.2971 20.3895 24.6612 20.3895H22.8586V18.9526C22.8586 16.9997 22.4789 15.6172 21.6929 14.7052C20.6732 13.4985 19.2953 13.51 18.1961 13.5214H13.4222C12.7703 13.5214 12.2705 14.1373 12.2705 14.8748C12.2705 15.6285 12.7703 16.242 13.4222 16.242Z" fill="url(#paint4_linear_562_2284)"/>
<path d="M16.4554 24.1575C16.4554 23.4075 15.9268 22.7927 15.3071 22.7927H7.24006C6.6031 22.7927 6.08301 23.4075 6.08301 24.1575C6.08301 24.905 6.6031 25.5185 7.24006 25.5185H10.1642V27.9951C10.1642 28.7502 10.6714 29.3548 11.3008 29.3548C11.955 29.3548 12.4621 28.7502 12.4621 27.9951V25.5185H15.3071C15.9268 25.5185 16.4554 24.9049 16.4554 24.1575Z" fill="url(#paint5_linear_562_2284)"/>
<path d="M23.562 33.0581C23.7636 33.0581 23.9546 33.0581 24.125 33.0581H33.4133C35.5322 33.0581 37.1396 32.3954 38.2086 31.075C39.8514 29.0234 39.7367 25.9851 39.6519 23.9779C39.6369 23.5946 39.6219 23.2343 39.6219 22.9319C39.6219 22.1754 39.1073 21.5735 38.4584 21.5735C37.8312 21.5735 37.324 22.1755 37.324 22.9319C37.324 23.2758 37.339 23.6705 37.3541 24.0904C37.4248 25.841 37.5042 27.9951 36.5241 29.2144C35.9258 29.9657 34.8673 30.3414 33.4133 30.3414H24.125C23.9631 30.3414 23.798 30.3414 23.5984 30.3414C21.7659 30.3085 18.684 30.2502 16.726 32.5295C15.6279 33.807 15.0693 35.6069 15.0693 37.871C15.0693 38.6071 15.5743 39.2308 16.2178 39.2308C16.8451 39.2308 17.3694 38.6072 17.3694 37.871C17.3694 36.3329 17.6835 35.2173 18.3441 34.4546C19.6094 32.9899 21.9921 33.0328 23.562 33.0581Z" fill="url(#paint6_linear_562_2284)"/>
<path d="M39.2299 38.9436C39.2299 38.2063 38.7248 37.5864 38.0826 37.5864H23.5056C22.8771 37.5864 22.3506 38.2063 22.3506 38.9436C22.3506 39.6961 22.8771 40.3033 23.5056 40.3033H27.963V43.015C27.963 43.7753 28.4746 44.3723 29.1083 44.3723C29.7442 44.3723 30.2579 43.7753 30.2579 43.015V40.3033H38.0826C38.7247 40.3033 39.2299 39.6961 39.2299 38.9436Z" fill="url(#paint7_linear_562_2284)"/>
<path d="M45.7592 44.2927H45.2178V41.7655C45.2178 40.9965 44.7117 40.4045 44.0705 40.4045C43.4335 40.4045 42.9198 40.9966 42.9198 41.7655V44.2927H38.9309C38.2961 44.2927 37.7803 44.8985 37.7803 45.6536C37.7803 46.3998 38.2961 47.0032 38.9309 47.0032H45.7594C46.39 47.0032 46.9078 46.3998 46.9078 45.6536C46.9077 44.8983 46.3899 44.2927 45.7592 44.2927Z" fill="url(#paint8_linear_562_2284)"/>
<path d="M51.0501 37.5864V35.3691H51.4641C52.1128 35.3691 52.6265 34.7735 52.6265 34.0222C52.6265 33.2721 52.1128 32.6573 51.4641 32.6573H43.4164C42.7837 32.6573 42.2646 33.2721 42.2646 34.0222C42.2646 34.7735 42.7837 35.3691 43.4164 35.3691H48.7424V37.5864C48.7424 38.3517 49.2647 38.9436 49.8996 38.9436C50.5333 38.9436 51.0501 38.3517 51.0501 37.5864Z" fill="url(#paint9_linear_562_2284)"/>
<path d="M54.6532 41.128H51.7419C51.0996 41.128 50.5859 41.725 50.5859 42.4802C50.5859 43.2353 51.0995 43.8272 51.7419 43.8272H54.6532C55.2987 43.8272 55.8177 43.2353 55.8177 42.4802C55.8178 41.725 55.2987 41.128 54.6532 41.128Z" fill="url(#paint10_linear_562_2284)"/>
<defs>
<linearGradient id="paint0_linear_562_2284" x1="31" y1="0" x2="31" y2="56" gradientUnits="userSpaceOnUse">
<stop stop-color="#056CB7"/>
<stop offset="1" stop-color="#8912B2"/>
</linearGradient>
<linearGradient id="paint1_linear_562_2284" x1="44.6812" y1="9.63318" x2="44.6812" y2="12.3475" gradientUnits="userSpaceOnUse">
<stop stop-color="#056CB7"/>
<stop offset="1" stop-color="#8912B2"/>
</linearGradient>
<linearGradient id="paint2_linear_562_2284" x1="42.113" y1="7.95331" x2="42.113" y2="28.019" gradientUnits="userSpaceOnUse">
<stop stop-color="#056CB7"/>
<stop offset="1" stop-color="#8912B2"/>
</linearGradient>
<linearGradient id="paint3_linear_562_2284" x1="27.4182" y1="5.36682" x2="27.4182" y2="14.2461" gradientUnits="userSpaceOnUse">
<stop stop-color="#056CB7"/>
<stop offset="1" stop-color="#8912B2"/>
</linearGradient>
<linearGradient id="paint4_linear_562_2284" x1="19.0374" y1="13.5192" x2="19.0374" y2="25.6084" gradientUnits="userSpaceOnUse">
<stop stop-color="#056CB7"/>
<stop offset="1" stop-color="#8912B2"/>
</linearGradient>
<linearGradient id="paint5_linear_562_2284" x1="11.2692" y1="22.7927" x2="11.2692" y2="29.3548" gradientUnits="userSpaceOnUse">
<stop stop-color="#056CB7"/>
<stop offset="1" stop-color="#8912B2"/>
</linearGradient>
<linearGradient id="paint6_linear_562_2284" x1="27.3814" y1="21.5735" x2="27.3814" y2="39.2308" gradientUnits="userSpaceOnUse">
<stop stop-color="#056CB7"/>
<stop offset="1" stop-color="#8912B2"/>
</linearGradient>
<linearGradient id="paint7_linear_562_2284" x1="30.7903" y1="37.5864" x2="30.7903" y2="44.3723" gradientUnits="userSpaceOnUse">
<stop stop-color="#056CB7"/>
<stop offset="1" stop-color="#8912B2"/>
</linearGradient>
<linearGradient id="paint8_linear_562_2284" x1="42.344" y1="40.4045" x2="42.344" y2="47.0032" gradientUnits="userSpaceOnUse">
<stop stop-color="#056CB7"/>
<stop offset="1" stop-color="#8912B2"/>
</linearGradient>
<linearGradient id="paint9_linear_562_2284" x1="47.4456" y1="32.6573" x2="47.4456" y2="38.9436" gradientUnits="userSpaceOnUse">
<stop stop-color="#056CB7"/>
<stop offset="1" stop-color="#8912B2"/>
</linearGradient>
<linearGradient id="paint10_linear_562_2284" x1="53.2018" y1="41.128" x2="53.2018" y2="43.8272" gradientUnits="userSpaceOnUse">
<stop stop-color="#056CB7"/>
<stop offset="1" stop-color="#8912B2"/>
</linearGradient>
</defs>
</svg>
