<svg width="57" height="56" viewBox="0 0 57 56" fill="none" xmlns="http://www.w3.org/2000/svg">
<g clip-path="url(#clip0_507_1672)">
<path d="M38.1345 35.1514C38.1345 37.1859 39.843 38.8348 41.9503 38.8348C44.0583 38.8348 45.7668 37.1859 45.7668 35.1514C45.7668 33.1176 44.0583 31.4687 41.9503 31.4687C39.8184 31.4687 38.1345 33.1414 38.1345 35.1514ZM35.2917 35.2591H20.0621C20.0026 38.7654 17.0379 41.5791 13.4035 41.5791C9.769 41.5791 6.80436 38.7654 6.74484 35.2591H1.42177C0.636306 35.2591 0 34.6449 0 33.8869V26.0513C0 25.4901 0.348942 25.008 0.849092 24.7954L14.7069 17.7622C15.66 17.2781 16.7868 17.9576 16.7868 18.9739L16.7896 24.6792H18.7252V21.4389C18.7252 20.6808 19.3622 20.0667 20.1469 20.0667H26.5634C27.3488 20.0667 27.9858 20.6808 27.9858 21.4389V24.6792H35.0276V23.0812L29.7483 17.986C28.4258 16.7096 30.4366 14.7689 31.7585 16.0453L37.4551 21.5432C37.7124 21.7915 37.8718 22.1342 37.8718 22.5133V24.6792H47.4855C52.6806 24.6792 56.9254 28.7765 56.9254 33.7905C56.9254 34.5895 56.2207 35.2188 55.3962 35.1587L48.6096 35.2359C48.5631 38.7516 45.5937 41.5791 41.9503 41.5791C38.3165 41.5791 35.3519 38.7654 35.2917 35.2591ZM19.4785 32.5147H35.8753C36.9495 30.2134 39.3216 28.7237 41.9503 28.7237C44.577 28.7237 46.947 30.2101 48.0233 32.5088L53.932 32.4414C53.2738 29.5346 50.5801 27.4235 47.4855 27.4235C36.7798 27.4235 26.0735 27.4235 15.3678 27.4235C14.5823 27.4235 13.946 26.8094 13.946 26.0513V21.2421L2.84353 26.8768V32.5147H7.32846C8.40265 30.2128 10.7741 28.7237 13.4035 28.7237C16.0328 28.7237 18.4043 30.2128 19.4785 32.5147ZM13.4035 31.4687C11.2961 31.4687 9.58769 33.1176 9.58769 35.1514C9.58769 37.1859 11.2961 38.8348 13.4035 38.8348C15.5115 38.8348 17.2199 37.1859 17.2199 35.1514C17.2199 33.1176 15.5108 31.4687 13.4035 31.4687ZM25.1416 24.6792V22.8111H21.5687V24.6792H25.1416Z" fill="url(#paint0_linear_507_1672)"/>
</g>
<defs>
<linearGradient id="paint0_linear_507_1672" x1="-4.53711" y1="18.3125" x2="21.686" y2="59.6261" gradientUnits="userSpaceOnUse">
<stop stop-color="#056CB7"/>
<stop offset="1" stop-color="#8912B2"/>
</linearGradient>
<clipPath id="clip0_507_1672">
<rect width="56.9254" height="56" fill="white"/>
</clipPath>
</defs>
</svg>
