<svg width="28" height="28" viewBox="0 0 28 28" fill="none" xmlns="http://www.w3.org/2000/svg">
<path d="M19.401 16.206L19.9324 15.6777L18.6984 14.4367L18.1671 14.9651L19.401 16.206ZM21.7169 15.4563L23.9458 16.668L24.7816 15.1306L22.5527 13.9189L21.7169 15.4563ZM24.3749 19.0763L22.7176 20.7242L23.9514 21.9652L25.6088 20.3173L24.3749 19.0763ZM21.7077 21.2548C20.0162 21.4124 15.6398 21.2719 10.9014 16.5605L9.66752 17.8015C14.8383 22.9428 19.7596 23.1939 21.8701 22.9972L21.7077 21.2548ZM10.9014 16.5605C6.38483 12.0695 5.63666 8.29224 5.54352 6.65354L3.79634 6.75284C3.91355 8.81531 4.83996 13.0013 9.66752 17.8015L10.9014 16.5605ZM12.506 9.35013L12.8406 9.01741L11.6067 7.77646L11.2721 8.10917L12.506 9.35013ZM13.1069 4.77633L11.6358 2.8112L10.2349 3.85996L11.706 5.82511L13.1069 4.77633ZM6.68796 2.38348L4.85676 4.20428L6.09068 5.44524L7.92188 3.62443L6.68796 2.38348ZM11.889 8.72965C11.2721 8.10917 11.2713 8.11 11.2704 8.11084C11.2701 8.11112 11.2693 8.11197 11.2687 8.11254C11.2676 8.1137 11.2664 8.11486 11.2652 8.11607C11.2629 8.11848 11.2604 8.12099 11.2579 8.1236C11.2528 8.12884 11.2475 8.13451 11.2419 8.14062C11.2306 8.15284 11.2183 8.16682 11.205 8.1826C11.1786 8.21416 11.1486 8.25302 11.1171 8.29951C11.054 8.39272 10.9852 8.51595 10.9268 8.67093C10.8076 8.98716 10.7437 9.40402 10.8238 9.92021C10.9804 10.9297 11.6757 12.2632 13.4566 14.0339L14.6904 12.793C13.0239 11.1358 12.6268 10.1273 12.5531 9.65193C12.518 9.42567 12.5544 9.31431 12.5644 9.28795C12.5705 9.27164 12.5734 9.26997 12.5659 9.28111C12.5622 9.28656 12.556 9.29509 12.5463 9.30658C12.5416 9.31233 12.5358 9.31884 12.5292 9.3261C12.5258 9.32973 12.5223 9.33354 12.5183 9.33754C12.5165 9.33955 12.5145 9.34159 12.5124 9.34369C12.5113 9.34474 12.5103 9.3458 12.5092 9.34688C12.5088 9.34741 12.508 9.34823 12.5076 9.3485C12.5068 9.34931 12.506 9.35013 11.889 8.72965ZM13.4566 14.0339C15.2381 15.8053 16.5778 16.4947 17.5889 16.6498C18.1056 16.7291 18.5222 16.6658 18.8383 16.5481C18.9932 16.4904 19.1167 16.4223 19.21 16.3598C19.2567 16.3285 19.2956 16.2988 19.3272 16.2725C19.3431 16.2595 19.3571 16.2472 19.3694 16.236C19.3755 16.2304 19.3813 16.2252 19.3865 16.2202C19.3892 16.2176 19.3916 16.2151 19.3941 16.2128C19.3953 16.2116 19.3964 16.2105 19.3976 16.2093C19.3982 16.2087 19.3991 16.2079 19.3993 16.2077C19.4002 16.2069 19.401 16.206 18.784 15.5855C18.1671 14.9651 18.1679 14.9642 18.1687 14.9634C18.169 14.9632 18.1698 14.9624 18.1704 14.9618C18.1714 14.9607 18.1725 14.9597 18.1735 14.9586C18.1757 14.9567 18.1777 14.9547 18.1797 14.9527C18.1838 14.9488 18.1876 14.9453 18.1913 14.942C18.1985 14.9354 18.205 14.9297 18.2109 14.925C18.2223 14.9155 18.2308 14.9094 18.2361 14.9058C18.2469 14.8986 18.2447 14.9018 18.2274 14.9082C18.1988 14.9189 18.0844 14.9554 17.8543 14.92C17.3721 14.8462 16.3566 14.4495 14.6904 12.793L13.4566 14.0339ZM11.6358 2.8112C10.4466 1.22268 8.10818 0.971318 6.68796 2.38348L7.92188 3.62443C8.54217 3.00765 9.64383 3.07043 10.2349 3.85996L11.6358 2.8112ZM5.54352 6.65354C5.52057 6.24975 5.70577 5.82795 6.09068 5.44524L4.85676 4.20428C4.22989 4.82759 3.73707 5.70994 3.79634 6.75284L5.54352 6.65354ZM22.7176 20.7242C22.397 21.043 22.0533 21.2226 21.7077 21.2548L21.8701 22.9972C22.7271 22.9173 23.4294 22.4843 23.9514 21.9652L22.7176 20.7242ZM12.8406 9.01741C13.9892 7.87534 14.0746 6.06887 13.1069 4.77633L11.706 5.82511C12.1767 6.45392 12.1067 7.27926 11.6067 7.77646L12.8406 9.01741ZM23.9458 16.668C24.8999 17.1867 25.0486 18.4064 24.3749 19.0763L25.6088 20.3173C27.1725 18.7624 26.6903 16.1681 24.7816 15.1306L23.9458 16.668ZM19.9324 15.6777C20.3804 15.2322 21.1015 15.1219 21.7169 15.4563L22.5527 13.9189C21.2885 13.2316 19.7196 13.4214 18.6984 14.4367L19.9324 15.6777Z" fill="#444444"/>
</svg>
