<svg width="57" height="56" viewBox="0 0 57 56" fill="none" xmlns="http://www.w3.org/2000/svg">
<path d="M13.7513 38.3186H11.5004C11.0343 38.3186 10.6562 38.6654 10.6562 39.0928C10.6562 39.5202 11.0344 39.8671 11.5004 39.8671H13.7513C14.2174 39.8671 14.5954 39.5202 14.5954 39.0928C14.5954 38.6654 14.2174 38.3186 13.7513 38.3186Z" fill="url(#paint0_linear_507_1238)"/>
<path d="M13.7513 42.4479H11.5004C11.0343 42.4479 10.6562 42.7947 10.6562 43.2221C10.6562 43.6495 11.0344 43.9964 11.5004 43.9964H13.7513C14.2174 43.9964 14.5954 43.6495 14.5954 43.2221C14.5954 42.7947 14.2174 42.4479 13.7513 42.4479Z" fill="url(#paint1_linear_507_1238)"/>
<path d="M20.5038 38.3186H19.3783C18.9122 38.3186 18.5342 38.6654 18.5342 39.0928C18.5342 39.5202 18.9123 39.8671 19.3783 39.8671H20.5038C20.9698 39.8671 21.3479 39.5202 21.3479 39.0928C21.3479 38.6654 20.9698 38.3186 20.5038 38.3186Z" fill="url(#paint2_linear_507_1238)"/>
<path d="M20.5038 42.4479H19.3783C18.9122 42.4479 18.5342 42.7947 18.5342 43.2221C18.5342 43.6495 18.9123 43.9964 19.3783 43.9964H20.5038C20.9698 43.9964 21.3479 43.6495 21.3479 43.2221C21.3479 42.7947 20.9698 42.4479 20.5038 42.4479Z" fill="url(#paint3_linear_507_1238)"/>
<path d="M13.7513 34.1893H11.5004C11.0343 34.1893 10.6562 34.5362 10.6562 34.9636C10.6562 35.391 11.0344 35.7378 11.5004 35.7378H13.7513C14.2174 35.7378 14.5954 35.391 14.5954 34.9636C14.5954 34.5362 14.2174 34.1893 13.7513 34.1893Z" fill="url(#paint4_linear_507_1238)"/>
<path d="M26.1317 31.0925C25.6657 31.0925 25.2876 31.4393 25.2876 31.8667V33.3637H19.0974V26.705C19.0974 26.2775 18.7193 25.9308 18.2533 25.9308C17.7873 25.9308 17.4092 26.2776 17.4092 26.705V29.0277H7.84251V24.6403C7.84251 24.2128 7.46438 23.8661 6.9984 23.8661C6.53243 23.8661 6.1543 24.213 6.1543 24.6404V46.8355C6.1543 47.5472 6.78517 48.1259 7.56114 48.1259H25.569C26.345 48.1259 26.9758 47.5472 26.9758 46.8355V31.8668C26.9759 31.4393 26.5978 31.0925 26.1317 31.0925ZM25.2876 46.5774H7.84251V30.5763H17.4092V34.9123H25.2876V46.5774Z" fill="url(#paint5_linear_507_1238)"/>
<path d="M49.7673 7.56757H14.6709C14.3137 7.56757 13.9806 7.74397 13.7987 8.03129L10.7674 12.8966C10.5899 13.1808 10.5905 13.5337 10.7697 13.8181C10.9488 14.1014 11.2818 14.2778 11.6391 14.2778H22.2224C22.1977 14.3503 22.1729 17.3122 22.1729 17.3122H14.2642C13.5162 17.3122 12.9074 17.8707 12.9074 18.5573V21.4445C12.9074 22.131 13.5163 22.6896 14.2642 22.6896H31.2466C31.9946 22.6896 32.6035 22.131 32.6035 21.4445V18.5573C32.6035 17.8707 31.9945 17.3122 31.2466 17.3122H23.8612C23.8612 17.3122 23.8359 14.3503 23.8117 14.2778H38.7712V48.4324H40.4594V42.7052L44.3986 46.3184V48.4324H46.0869V14.2777H49.7672C50.3212 14.2777 50.7718 13.8644 50.7718 13.3553V8.48896C50.7719 7.9809 50.3212 7.56757 49.7673 7.56757ZM30.9153 21.1411H14.5956V18.8607H30.9153V21.1411ZM40.4594 19.2831L43.6688 22.2268L40.4594 25.1705V19.2831ZM40.4594 26.951L43.6688 29.8947L40.4594 32.8384V26.951ZM41.8767 26.0608L44.3986 23.7476V28.3739L41.8767 26.0608ZM44.3986 20.706L41.8767 18.3929L44.3986 16.0797V20.706ZM39.4241 12.7292L42.6126 9.80459L45.8007 12.7292H39.4241ZM24.5239 10.1736L27.3102 12.7292H21.7382L24.5239 10.1736ZM20.1028 12.0396L16.9153 9.11604H23.2897L20.1028 12.0396ZM25.7588 9.11604H32.1326L28.9457 12.0396L25.7588 9.11604ZM33.3674 10.1736L36.1536 12.7292H30.5811L33.3674 10.1736ZM37.7891 12.0396L34.6017 9.11604H40.976L37.7891 12.0396ZM14.9045 9.3777C14.9452 9.4679 18.4673 12.7292 18.4673 12.7292H12.8162L14.9045 9.3777ZM43.9761 14.2777L40.4595 17.5027V14.2777H43.9761ZM40.4594 34.6183L43.8128 37.6936L40.4594 40.909V34.6183ZM44.3986 44.1281L41.8635 41.8028L44.3986 39.3722V44.1281ZM41.8767 33.7286L44.3986 31.4155V36.0413L41.8767 33.7286ZM49.0837 12.7292H48.1769C48.1681 12.7202 44.2492 9.11604 44.2492 9.11604H49.0837V12.7292Z" fill="url(#paint6_linear_507_1238)"/>
<defs>
<linearGradient id="paint0_linear_507_1238" x1="10.3423" y1="38.4788" x2="11.7988" y2="41.1399" gradientUnits="userSpaceOnUse">
<stop stop-color="#056CB7"/>
<stop offset="1" stop-color="#8912B2"/>
</linearGradient>
<linearGradient id="paint1_linear_507_1238" x1="10.3423" y1="42.6081" x2="11.7988" y2="45.2692" gradientUnits="userSpaceOnUse">
<stop stop-color="#056CB7"/>
<stop offset="1" stop-color="#8912B2"/>
</linearGradient>
<linearGradient id="paint2_linear_507_1238" x1="18.3099" y1="38.4788" x2="19.9795" y2="40.6577" gradientUnits="userSpaceOnUse">
<stop stop-color="#056CB7"/>
<stop offset="1" stop-color="#8912B2"/>
</linearGradient>
<linearGradient id="paint3_linear_507_1238" x1="18.3099" y1="42.6081" x2="19.9795" y2="44.787" gradientUnits="userSpaceOnUse">
<stop stop-color="#056CB7"/>
<stop offset="1" stop-color="#8912B2"/>
</linearGradient>
<linearGradient id="paint4_linear_507_1238" x1="10.3423" y1="34.3495" x2="11.7988" y2="37.0106" gradientUnits="userSpaceOnUse">
<stop stop-color="#056CB7"/>
<stop offset="1" stop-color="#8912B2"/>
</linearGradient>
<linearGradient id="paint5_linear_507_1238" x1="4.49476" y1="26.3757" x2="28.697" y2="41.2948" gradientUnits="userSpaceOnUse">
<stop stop-color="#056CB7"/>
<stop offset="1" stop-color="#8912B2"/>
</linearGradient>
<linearGradient id="paint6_linear_507_1238" x1="7.43574" y1="11.7949" x2="50.4248" y2="42.1208" gradientUnits="userSpaceOnUse">
<stop stop-color="#056CB7"/>
<stop offset="1" stop-color="#8912B2"/>
</linearGradient>
</defs>
</svg>
