<svg width="57" height="56" viewBox="0 0 57 56" fill="none" xmlns="http://www.w3.org/2000/svg">
<g clip-path="url(#clip0_507_2000)">
<path d="M52.7959 16.9415L27.1268 0.154527C26.8118 -0.0515089 26.4017 -0.0515089 26.0867 0.154527L0.417567 16.9415C0.1569 17.112 0 17.3996 0 17.7068C0 18.014 0.156275 18.3016 0.417567 18.4721L4.31631 21.0218V34.4589C4.31631 34.7722 4.47884 35.0641 4.74763 35.2333L26.2504 48.7562C26.4048 48.8531 26.5805 48.9016 26.7568 48.9016C26.9412 48.9016 27.1262 48.8482 27.285 48.7415L38.5036 41.2335V46.469L34.3242 54.6687C34.1792 54.9539 34.1948 55.293 34.3649 55.564C34.5355 55.8344 34.8381 56 35.1625 56H43.7195C44.0445 56 44.3465 55.8344 44.5171 55.564C44.6871 55.293 44.7034 54.9539 44.5577 54.6687L40.3783 46.469V39.9783L47.4901 35.2186C47.7458 35.0475 47.8989 34.763 47.8989 34.4589V21.6742L52.7953 18.4721C53.056 18.3016 53.2129 18.014 53.2129 17.7068C53.2129 17.3996 53.0566 17.112 52.7959 16.9415ZM36.6802 54.1604L39.4413 48.7434L42.2024 54.1604H36.6802ZM26.7405 46.8792L6.19161 33.956V22.2482L26.0867 35.2597C26.2442 35.3627 26.4255 35.4142 26.6068 35.4142C26.788 35.4142 26.9693 35.3627 27.1268 35.2597L38.5036 27.8191V39.0064L26.7405 46.8792ZM46.0242 33.9732L40.3789 37.7517V26.5927L46.0242 22.9006V33.9732ZM46.6362 20.2896C46.498 20.3399 46.3762 20.4202 46.2774 20.5245L39.4413 24.9953L27.1268 16.9415C26.6949 16.6595 26.1135 16.7741 25.8266 17.1966C25.5397 17.6191 25.656 18.1906 26.0867 18.4721L37.751 26.1003L26.6068 33.3888L2.62792 17.7068L26.6068 2.0254L50.5856 17.7068L46.6362 20.2896Z" fill="url(#paint0_linear_507_2000)"/>
<path fill-rule="evenodd" clip-rule="evenodd" d="M4.74806 35.2333C4.47927 35.0641 4.31675 34.7722 4.31675 34.4589V21.0218L0.417998 18.4721C0.156706 18.3016 0.000431404 18.014 0.000431404 17.7068C0.000431404 17.3996 0.157332 17.112 0.417998 16.9415L26.0871 0.154536C26.4021 -0.0514999 26.8122 -0.0514999 27.1273 0.154536L52.7964 16.9415C53.057 17.112 53.2133 17.3996 53.2133 17.7068C53.2133 18.014 53.0564 18.3016 52.7957 18.4721L47.8993 21.6742V34.4589C47.8993 34.763 47.7462 35.0475 47.4905 35.2186L40.3788 39.9783V46.469L44.5582 54.6688C44.7038 54.9539 44.6876 55.293 44.5175 55.564C44.3469 55.8344 44.045 56 43.7199 56H35.1629C34.8385 56 34.5359 55.8344 34.3653 55.564C34.1953 55.293 34.1796 54.9539 34.3247 54.6688L38.5041 46.469V41.2335L27.2854 48.7415C27.1266 48.8482 26.9416 48.9016 26.7572 48.9016C26.5809 48.9016 26.4053 48.8531 26.2509 48.7563L4.74806 35.2333ZM27.4246 48.9429C27.2236 49.0779 26.9897 49.1451 26.7572 49.1451C26.5347 49.1451 26.3127 49.0839 26.1178 48.9615L4.61475 35.4385C4.27503 35.2246 4.06924 34.8554 4.06924 34.4589V21.1523L0.281205 18.675C-0.0492278 18.4593 -0.24707 18.0954 -0.24707 17.7068C-0.24707 17.3179 -0.0485216 16.9543 0.280978 16.7388L25.9501 -0.0482264C26.3481 -0.30855 26.8662 -0.30855 27.2643 -0.0482264L52.9334 16.7388C53.2632 16.9544 53.4608 17.3182 53.4608 17.7068C53.4608 18.0958 53.2623 18.4594 52.9328 18.6748L48.1468 21.8047V34.4589C48.1468 34.8437 47.9531 35.2035 47.6297 35.4199L40.6263 40.1071V46.4114L44.7793 54.5594C44.9638 54.9206 44.943 55.3495 44.7282 55.6919C44.5123 56.0339 44.1305 56.2435 43.7199 56.2435H35.1629C34.753 56.2435 34.3709 56.0345 34.155 55.6924C33.94 55.3497 33.9199 54.9205 34.1033 54.5598L38.2566 46.4114V41.6936L27.4246 48.9429ZM27.1273 16.9415L39.4417 24.9953L46.2778 20.5245C46.3766 20.4202 46.4985 20.3399 46.6366 20.2896L50.586 17.7068L26.6072 2.02541L2.62835 17.7068L26.6072 33.3888L37.7515 26.1003L26.0871 18.4721C25.6564 18.1906 25.5401 17.6191 25.8271 17.1966C26.114 16.7741 26.6953 16.6595 27.1273 16.9415ZM37.3044 26.1003L25.9501 18.6749C25.9501 18.6749 25.9502 18.6749 25.9501 18.6749C25.4055 18.3189 25.2583 17.5959 25.6213 17.0614C25.9841 16.527 26.7188 16.3826 27.2641 16.7387L39.4417 24.703L46.118 20.3366C46.2321 20.2223 46.369 20.1322 46.5223 20.072L50.1389 17.7068L26.6072 2.31778L3.07541 17.7068L26.6072 33.0965L37.3044 26.1003ZM36.6807 54.1604H42.2028L39.4417 48.7434L36.6807 54.1604ZM37.0816 53.9169H41.8018L39.4417 49.2866L37.0816 53.9169ZM26.741 46.8792L38.5041 39.0064V27.8191L27.1273 35.2597C26.9697 35.3627 26.7885 35.4142 26.6072 35.4142C26.4259 35.4142 26.2446 35.3627 26.0871 35.2597L6.19204 22.2482V33.956L26.741 46.8792ZM6.43955 33.8227L26.7367 46.5876L38.2566 38.8775V28.2734L27.2643 35.4625C27.0653 35.5926 26.8361 35.6577 26.6072 35.6577C26.3782 35.6577 26.1491 35.5926 25.9501 35.4625L6.43955 22.7024V33.8227ZM46.0247 33.9732V22.9006L40.3794 26.5927V37.7518L46.0247 33.9732ZM40.6269 37.2916L45.7772 33.8444V23.3549L40.6269 26.7232V37.2916Z" fill="black"/>
</g>
<defs>
<linearGradient id="paint0_linear_507_2000" x1="-4.24121" y1="5.79298" x2="53.9916" y2="45.5357" gradientUnits="userSpaceOnUse">
<stop stop-color="#056CB7"/>
<stop offset="1" stop-color="#8912B2"/>
</linearGradient>
<clipPath id="clip0_507_2000">
<rect width="56.9254" height="56" fill="white"/>
</clipPath>
</defs>
</svg>
