<svg width="30" height="30" viewBox="0 0 30 30" fill="none" xmlns="http://www.w3.org/2000/svg">
<path d="M27.9314 5.98234C27.815 5.39032 27.5527 4.83077 27.1698 4.36036C27.0921 4.26159 27.0108 4.17373 26.9218 4.0846C26.2408 3.39536 25.2934 3.00003 24.3225 3.00003H3.67741C2.69571 3.00003 1.77242 3.38539 1.07762 4.08499C0.98968 4.17329 0.908141 4.26203 0.827422 4.36393C0.44625 4.83237 0.185008 5.39114 0.0714219 5.98399C0.0239531 6.21681 0 6.45804 0 6.70209V21.2983C0 21.8061 0.102484 22.3006 0.305648 22.7707C0.481469 23.1881 0.748234 23.5839 1.0774 23.9151C1.1603 23.9981 1.24266 24.0748 1.3306 24.1495C1.98871 24.6981 2.82204 25 3.67741 25H24.3225C25.1834 25 26.0159 24.697 26.6722 24.1434C26.76 24.072 26.8413 23.9969 26.9226 23.9151C27.2408 23.5951 27.4936 23.2275 27.6754 22.8221L27.6994 22.7643C27.8988 22.3031 28 21.8102 28 21.2984V6.70209C28 6.46124 27.9769 6.2184 27.9314 5.98234ZM1.90438 5.36263C1.95639 5.28599 2.02278 5.20732 2.10749 5.12139C2.52798 4.69832 3.08563 4.4655 3.67735 4.4655H24.3224C24.9193 4.4655 25.4772 4.6987 25.893 5.12222C25.9648 5.19527 26.0334 5.27636 26.0932 5.3574L26.2511 5.571L15.2316 15.2389C14.8918 15.5388 14.4545 15.7037 13.9998 15.7037C13.5497 15.7037 13.1127 15.5391 12.7689 15.2393L1.76039 5.57375L1.90438 5.36263ZM1.46316 21.4272C1.4572 21.3874 1.45584 21.3433 1.45584 21.2983V7.00432L10.0073 14.514L1.54213 21.9438L1.46316 21.4272ZM25.4242 23.2399C25.0932 23.4321 24.712 23.5341 24.3225 23.5341H3.67741C3.28765 23.5341 2.90664 23.4321 2.57589 23.2399L2.22983 23.0379L10.9763 15.3649L11.9349 16.2042C12.5099 16.7067 13.2431 16.9837 13.9999 16.9837C14.7596 16.9837 15.494 16.7067 16.0686 16.2042L17.0268 15.3645L25.7703 23.0384L25.4242 23.2399ZM26.5438 21.2983C26.5438 21.3425 26.543 21.3862 26.5374 21.4251L26.4616 21.9466L17.9928 14.518L26.5438 7.00795V21.2983Z" fill="#444444"/>
</svg>
