<svg width="57" height="56" viewBox="0 0 57 56" fill="none" xmlns="http://www.w3.org/2000/svg">
<path d="M8.22214 8.2964V42.7779H53.7625V8.2964H8.22214ZM10.7522 10.7594H51.2324V40.3149H10.7522V10.7594ZM3.16211 13.2223V47.7038H48.7024V45.2408H5.69213V13.2223H3.16211ZM13.2822 13.2223V15.6853H15.8122V13.2223H13.2822ZM46.1724 13.2223V15.6853H48.7024V13.2223H46.1724ZM23.4023 15.9739V35.1004L25.3195 33.9843L39.7782 25.5371L23.4023 15.9739ZM25.9323 20.3274L34.8516 25.5371L25.9323 30.7469V20.3274ZM13.2822 20.6112V23.0742H15.8122V20.6112H13.2822ZM46.1724 20.6112V23.0742H48.7024V20.6112H46.1724ZM13.2822 28.0001V30.4631H15.8122V28.0001H13.2822ZM46.1724 28.0001V30.4631H48.7024V28.0001H46.1724ZM13.2822 35.389V37.852H15.8122V35.389H13.2822ZM46.1724 35.389V37.852H48.7024V35.389H46.1724Z" fill="url(#paint0_linear_507_1641)"/>
<defs>
<linearGradient id="paint0_linear_507_1641" x1="-0.870876" y1="12.3729" x2="42.9907" y2="52.8232" gradientUnits="userSpaceOnUse">
<stop stop-color="#056CB7"/>
<stop offset="1" stop-color="#8912B2"/>
</linearGradient>
</defs>
</svg>
