<svg width="12" height="24" viewBox="0 0 12 24" fill="none" xmlns="http://www.w3.org/2000/svg">
<path d="M8 8V5.61875C8 4.54375 8.2375 4 9.90625 4H12V0H8.50625C4.225 0 2.8125 1.9625 2.8125 5.33125V8H0V12H2.8125V24H8V12H11.525L12 8H8ZM10.6375 11H8.06875H7V11.9688V23H3.8125V11.9688V11H2.88125H1V9H2.88125H3.8125V7.96875V5.33125C3.8125 3.8 4.15 2.75625 4.78125 2.09375C5.48125 1.34375 6.725 1 8.50625 1H11V3H9.90625C9.15625 3 8.1875 3.06875 7.5875 3.73125C7.08125 4.29375 7 4.9875 7 5.6125V7.9625V9H8.06875H10.875L10.6375 11Z" fill="#E5E5E5"/>
</svg>
