<svg width="57" height="56" viewBox="0 0 57 56" fill="none" xmlns="http://www.w3.org/2000/svg">
<path d="M3.45114 51.6984H53.4631C53.9283 51.6984 54.2981 51.3091 54.2981 50.8193V22.5992C54.2981 22.1094 53.9283 21.72 53.4631 21.72H50.0042L45.5552 5.74498C45.4121 5.23006 45.09 4.80305 44.6368 4.55187C44.1836 4.30069 43.6707 4.2379 43.1816 4.3886L6.92204 15.5912C5.9082 15.9052 5.33568 17.023 5.62194 18.0905L6.63578 21.72H3.45114C2.98596 21.72 2.61621 22.1094 2.61621 22.5992V50.8193C2.61621 51.2965 2.99789 51.6984 3.45114 51.6984ZM7.24408 17.5881C7.2083 17.45 7.27986 17.3118 7.41107 17.2742L43.6707 6.07151C43.7542 6.04639 43.8138 6.07151 43.8496 6.09663C43.8854 6.12175 43.945 6.15943 43.9689 6.24734L48.2747 21.72H8.38912L7.24408 17.5881ZM4.28606 23.4783H7.75696H49.3839H52.6282V49.9401H4.28606V23.4783Z" fill="url(#paint0_linear_507_923)"/>
<path d="M49.42 31.2649H48.4658C47.2373 31.2649 46.14 30.549 45.5913 29.3936C45.3647 28.9164 45.2454 28.414 45.2454 27.874V26.8692C45.2454 26.3794 44.8757 25.9901 44.4105 25.9901H12.5164C12.0512 25.9901 11.6814 26.3794 11.6814 26.8692V27.874C11.6814 29.1173 11.0373 30.2602 9.99965 30.8505C9.53447 31.1142 8.99774 31.2649 8.461 31.2649H7.5068C7.04163 31.2649 6.67188 31.6542 6.67188 32.144V41.2744C6.67188 41.7642 7.04163 42.1536 7.5068 42.1536H8.461C10.2382 42.1536 11.6814 43.6732 11.6814 45.5445V46.5492C11.6814 47.039 12.0512 47.4283 12.5164 47.4283H44.3986C44.8637 47.4283 45.2335 47.039 45.2335 46.5492V45.5445C45.2335 43.6732 46.6767 42.1536 48.4539 42.1536H49.4081C49.8733 42.1536 50.243 41.7642 50.243 41.2744V32.144C50.255 31.6542 49.8733 31.2649 49.42 31.2649ZM48.5851 40.3953H48.4658C45.7702 40.3953 43.5756 42.7062 43.5756 45.5445V45.6701H13.3513V45.5445C13.3513 42.7062 11.1566 40.3953 8.461 40.3953H8.34173V33.0232H8.461C9.27207 33.0232 10.0831 32.8097 10.7988 32.3952C12.3732 31.491 13.3513 29.7578 13.3513 27.874V27.7484H43.5636V27.874C43.5636 28.6652 43.7425 29.469 44.0765 30.1723C44.9114 31.9305 46.5932 33.0232 48.4539 33.0232H48.5732V40.3953H48.5851Z" fill="url(#paint1_linear_507_923)"/>
<path d="M16.5471 33.4125C14.8176 33.4125 13.4102 34.8944 13.4102 36.7155C13.4102 37.9588 14.0542 39.0766 15.1039 39.6417C15.5452 39.8804 16.0461 40.0185 16.5471 40.0185C17.6444 40.0185 18.6702 39.4031 19.2308 38.411C19.2427 38.3984 19.2427 38.3858 19.2546 38.3733C19.529 37.8709 19.6721 37.3058 19.6721 36.7281C19.6721 34.8944 18.2766 33.4125 16.5471 33.4125ZM17.8233 37.4439C17.8114 37.4565 17.8114 37.469 17.7995 37.4816C17.5371 37.9588 17.06 38.2477 16.5352 38.2477C16.2966 38.2477 16.07 38.1849 15.8672 38.0719C15.3782 37.8081 15.08 37.2807 15.08 36.7029C15.08 35.8489 15.736 35.1582 16.5471 35.1582C17.3582 35.1582 18.0142 35.8489 18.0142 36.7029C18.0022 36.9667 17.9426 37.2179 17.8233 37.4439Z" fill="url(#paint2_linear_507_923)"/>
<path d="M40.5695 33.4125C38.8401 33.4125 37.4326 34.8944 37.4326 36.7155C37.4326 38.5366 38.8401 40.0185 40.5695 40.0185C42.299 40.0185 43.7065 38.5366 43.7065 36.7155C43.7065 34.8944 42.299 33.4125 40.5695 33.4125ZM40.5695 38.2477C39.7585 38.2477 39.1025 37.5569 39.1025 36.7029C39.1025 35.8489 39.7585 35.1582 40.5695 35.1582C41.3806 35.1582 42.0366 35.8489 42.0366 36.7029C42.0366 37.5569 41.3806 38.2477 40.5695 38.2477Z" fill="url(#paint3_linear_507_923)"/>
<path d="M29.1428 35.6731V32.885C29.608 32.998 30.0851 33.2241 30.5622 33.5255C30.7053 33.6134 30.8365 33.6511 30.9796 33.6511C31.409 33.6511 31.7549 33.2994 31.7549 32.8473C31.7549 32.4957 31.5641 32.2822 31.3375 32.144C30.7053 31.717 30.0135 31.4407 29.1905 31.3402V31.0263C29.1905 30.6746 28.9281 30.3983 28.5941 30.3983C28.2602 30.3983 27.9858 30.6746 27.9858 31.0263V31.3277C26.2564 31.4784 25.0875 32.5459 25.0875 34.1032C25.0875 34.7689 25.2425 35.2963 25.5646 35.7233C26.0297 36.3513 26.8527 36.7657 28.0455 37.0923V39.9557C27.2821 39.805 26.65 39.4785 25.9939 38.9761C25.8747 38.8756 25.7077 38.8129 25.5407 38.8129C25.1113 38.8129 24.7773 39.1645 24.7773 39.6166C24.7773 39.918 24.9205 40.1567 25.1471 40.3199C25.9939 40.9479 26.9481 41.3372 27.9858 41.4502V42.3545C27.9858 42.7061 28.2602 42.9824 28.5941 42.9824C28.9281 42.9824 29.1905 42.7061 29.1905 42.3545V41.4754C30.9439 41.2995 32.1366 40.2446 32.1366 38.637C32.1366 37.1174 31.2421 36.2257 29.1428 35.6731ZM28.0455 35.3717C27.8308 35.2963 27.6519 35.221 27.4968 35.1456C26.8885 34.8442 26.7215 34.5051 26.7215 34.0153C26.7215 33.3748 27.1628 32.885 28.0455 32.7971V35.3717ZM29.1428 40.0436V37.3937C30.2044 37.7453 30.5145 38.1347 30.5145 38.7752C30.5025 39.4659 30.0254 39.9306 29.1428 40.0436Z" fill="url(#paint4_linear_507_923)"/>
<defs>
<linearGradient id="paint0_linear_507_923" x1="-1.50297" y1="9.21006" x2="49.8765" y2="49.4535" gradientUnits="userSpaceOnUse">
<stop stop-color="#056CB7"/>
<stop offset="1" stop-color="#8912B2"/>
</linearGradient>
<linearGradient id="paint1_linear_507_923" x1="3.19911" y1="28.2078" x2="25.5226" y2="60.7942" gradientUnits="userSpaceOnUse">
<stop stop-color="#056CB7"/>
<stop offset="1" stop-color="#8912B2"/>
</linearGradient>
<linearGradient id="paint2_linear_507_923" x1="12.9111" y1="34.0958" x2="19.7744" y2="38.7685" gradientUnits="userSpaceOnUse">
<stop stop-color="#056CB7"/>
<stop offset="1" stop-color="#8912B2"/>
</linearGradient>
<linearGradient id="paint3_linear_507_923" x1="36.9326" y1="34.0958" x2="43.8007" y2="38.7806" gradientUnits="userSpaceOnUse">
<stop stop-color="#056CB7"/>
<stop offset="1" stop-color="#8912B2"/>
</linearGradient>
<linearGradient id="paint4_linear_507_923" x1="24.1908" y1="31.7001" x2="34.2252" y2="35.9148" gradientUnits="userSpaceOnUse">
<stop stop-color="#056CB7"/>
<stop offset="1" stop-color="#8912B2"/>
</linearGradient>
</defs>
</svg>
