<svg width="48" height="48" viewBox="0 0 48 48" fill="none" xmlns="http://www.w3.org/2000/svg">
<path d="M24.401 20.8434C21.3343 20.8434 18.8394 23.3383 18.8394 26.4051C18.8394 29.4718 21.3342 31.9667 24.401 31.9667C27.4677 31.9667 29.9626 29.4718 29.9626 26.4051C29.9626 23.3383 27.4676 20.8434 24.401 20.8434ZM24.401 30.4635C22.1631 30.4635 20.3425 28.6429 20.3425 26.4051C20.3425 24.1673 22.1632 22.3466 24.401 22.3466C26.6388 22.3466 28.4594 24.1673 28.4594 26.4051C28.4594 28.6429 26.6388 30.4635 24.401 30.4635Z" fill="#EEEEEE"/>
<path d="M38.8309 0C35.7643 0 33.2693 2.49487 33.2693 5.56163C33.2693 8.62828 35.7642 11.1233 38.8309 11.1233C41.8976 11.1233 44.3925 8.62838 44.3925 5.56163C44.3925 2.49487 41.8977 0 38.8309 0ZM38.8309 9.62006C36.5931 9.62006 34.7725 7.79944 34.7725 5.56163C34.7725 3.32381 36.5931 1.50319 38.8309 1.50319C41.0688 1.50319 42.8893 3.32381 42.8893 5.56163C42.8893 7.79944 41.0688 9.62006 38.8309 9.62006Z" fill="#EEEEEE"/>
<path d="M9.16905 0C6.1023 0 3.60742 2.49487 3.60742 5.56163C3.60742 8.62828 6.1023 11.1233 9.16905 11.1233C12.2357 11.1233 14.7307 8.62838 14.7307 5.56163C14.7306 2.49487 12.2357 0 9.16905 0ZM9.16905 9.62006C6.93114 9.62006 5.11061 7.79944 5.11061 5.56163C5.11061 3.32381 6.93123 1.50319 9.16905 1.50319C11.4069 1.50319 13.2275 3.32381 13.2275 5.56163C13.2275 7.79944 11.4069 9.62006 9.16905 9.62006Z" fill="#EEEEEE"/>
<path d="M46.0461 18.3383C46.4612 18.3383 46.7977 18.0018 46.7977 17.5867V15.1817C46.7977 12.9991 45.022 11.2235 42.8395 11.2235H34.8226C34.5783 11.2235 34.3353 11.2485 34.0955 11.2934C31.3243 9.17804 27.8966 8.01675 24.4009 8.01675C20.8092 8.01675 17.3129 9.23391 14.5026 11.4521C14.0789 11.3007 13.6353 11.2235 13.1775 11.2235H5.16086C2.97826 11.2235 1.20264 12.9992 1.20264 15.1817V26.4051C1.20264 26.8201 1.53901 27.1567 1.95423 27.1567H8.73058C9.03948 28.6995 9.57357 30.182 10.3224 31.5718C10.5297 31.9565 11.0363 32.0822 11.4005 31.8409C11.7197 31.6292 11.827 31.1956 11.6457 30.8588C11.0155 29.6893 10.5534 28.4475 10.2668 27.1568H16.3843C16.7995 27.1568 17.1359 26.8203 17.1359 26.4052V15.1817C17.1359 14.0637 16.6731 13.0276 15.883 12.2911C18.3474 10.4979 21.3359 9.51985 24.4011 9.51985C27.3277 9.51985 30.1006 10.3698 32.49 11.9883C31.4941 12.7209 30.8645 13.902 30.8645 15.1816V26.405C30.8645 26.82 31.2009 27.1566 31.6161 27.1566H38.5342C37.7195 30.8003 35.4869 34.0279 32.3677 36.0918V36.025C32.3677 33.8425 30.592 32.0668 28.4095 32.0668H20.3926C18.21 32.0668 16.4344 33.8425 16.4344 36.025V36.0926C15.2069 35.2838 14.1137 34.2967 13.1747 33.1453C12.9123 32.8238 12.4389 32.7756 12.1172 33.0379C11.7955 33.3002 11.7475 33.7736 12.0098 34.0953C13.2524 35.619 14.7396 36.8828 16.4344 37.858V47.2484C16.4344 47.6634 16.7708 48 17.186 48H31.6161C32.0312 48 32.3677 47.6635 32.3677 47.2484V37.8584C36.3386 35.569 39.1692 31.6299 40.0697 27.1567H46.0462C46.4613 27.1567 46.7978 26.8202 46.7978 26.4051V21.595C46.7978 21.18 46.4614 20.8434 46.0462 20.8434C45.631 20.8434 45.2946 21.1799 45.2946 21.595V25.6535H32.3676V15.1816C32.3676 14.1006 33.0912 13.1323 34.1275 12.827H34.1275C34.354 12.7603 34.5878 12.7266 34.8227 12.7266H36.686L37.2667 14.4687L36.4793 23.1304C36.4512 23.4385 36.6149 23.7323 36.8915 23.8706L38.4948 24.6723C38.7045 24.7771 38.9574 24.7771 39.1671 24.6723L40.7704 23.8706C41.047 23.7323 41.2108 23.4384 41.1826 23.1304L40.3952 14.4687L40.976 12.7265H42.8393C44.1931 12.7265 45.2944 13.8278 45.2944 15.1816V17.5866C45.2945 18.0017 45.6309 18.3383 46.0461 18.3383ZM9.72986 12.7265L9.4292 13.6283H8.90926L8.60861 12.7265H9.72986ZM9.05382 15.1315H9.28464L9.97764 22.7555L9.16923 23.1597L8.36083 22.7555L9.05382 15.1315ZM15.6326 25.6535H2.70573V15.1816C2.70573 13.8278 3.80701 12.7265 5.16086 12.7265H7.02414L7.60482 14.4686L6.81742 23.1303C6.78939 23.4384 6.95307 23.7323 7.22964 23.8705L8.83295 24.6722C9.04267 24.777 9.29551 24.777 9.50523 24.6722L11.1085 23.8705C11.3852 23.7323 11.549 23.4383 11.5208 23.1303L10.7334 14.4686L11.3141 12.7265H13.1774C13.5662 12.7265 13.9389 12.8153 14.2848 12.9908C15.1162 13.4121 15.6325 14.2515 15.6325 15.1816L15.6326 25.6535ZM24.9616 33.5699L24.661 34.4718H24.1409L23.8403 33.5699H24.9616ZM24.2856 35.975H24.5164L25.2094 43.599L24.401 44.0033L23.5926 43.599L24.2856 35.975ZM30.8644 46.4969H17.9375V36.025C17.9375 34.6713 19.0388 33.5699 20.3926 33.5699H22.2559L22.8366 35.3121L22.0492 43.9737C22.0211 44.2819 22.1848 44.5757 22.4614 44.714L24.0647 45.5156C24.2744 45.6204 24.5273 45.6204 24.737 45.5156L26.3403 44.714C26.617 44.5757 26.7807 44.2818 26.7525 43.9737L25.9651 35.3121L26.5459 33.5699H28.4092C29.763 33.5699 30.8643 34.6713 30.8643 36.025V46.4969H30.8644ZM39.3917 12.7265L39.091 13.6283H38.571L38.2704 12.7265H39.3917ZM38.831 23.1597L38.0226 22.7555L38.7156 15.1315H38.9464L39.6394 22.7555L38.831 23.1597Z" fill="#EEEEEE"/>
</svg>
