<svg width="57" height="56" viewBox="0 0 57 56" fill="none" xmlns="http://www.w3.org/2000/svg">
<path d="M47.4688 48.02H1.53125V46.9175H2.51125V30.625C2.51125 30.3203 2.75778 30.0737 3.0625 30.0737H11.6987V29.0937C11.6987 28.789 11.9453 28.5425 12.25 28.5425H36.75C37.0547 28.5425 37.3013 28.789 37.3013 29.0937V30.0737H45.9375C46.2422 30.0737 46.4888 30.3203 46.4888 30.625V46.9175H47.4688V48.02ZM37.3013 46.9175H45.3847V31.1762H37.3013V46.9175ZM12.8012 46.9175H36.1987V29.645H12.8012V46.9175ZM3.61375 46.9175H11.6987V31.1762H3.61375V46.9175ZM41.895 45.9375H40.7925V41.3437H41.8965L41.895 45.9375ZM31.1763 45.9375H30.0737V41.3437H31.1778L31.1763 45.9375ZM25.0513 45.9375H23.9488V41.3437H25.0513V45.9375ZM18.9262 45.9375H17.8238V41.3437H18.9262V45.9375ZM8.2075 45.9375H7.105V41.3437H8.2075V45.9375ZM41.895 38.2812H40.7925V33.6875H41.8965L41.895 38.2812ZM31.1763 38.2812H30.0737V33.6875H31.1778L31.1763 38.2812ZM25.0513 38.2812H23.9488V33.6875H25.0513V38.2812ZM18.9262 38.2812H17.8238V33.6875H18.9262V38.2812ZM8.2075 38.2812H7.105V33.6875H8.2075V38.2812ZM34.2388 26.0312H33.1362V20.4575H15.8637V26.0312H14.7613V19.9062C14.7613 14.7214 18.8344 10.4691 23.9488 10.1828V3.06248C23.9488 2.75776 24.1953 2.51123 24.5 2.51123H29.0938C29.3985 2.51123 29.645 2.75776 29.645 3.06248V6.12498C29.645 6.4297 29.3985 6.67623 29.0938 6.67623H25.0513V10.1828C30.1656 10.4707 34.2388 14.7214 34.2388 19.9062V26.0312ZM15.8821 19.355H33.1194C32.8331 14.8485 29.0769 11.27 24.5 11.27C19.9231 11.27 16.1669 14.8485 15.8821 19.355ZM25.0513 5.57373H28.5425V3.61373H25.0513V5.57373ZM29.645 26.0312H28.5425V22.9687H29.6465L29.645 26.0312ZM25.0513 26.0312H23.9488V22.9687H25.0513V26.0312ZM20.4575 26.0312H19.355V22.9687H20.4575V26.0312Z" fill="url(#paint0_linear_507_2016)"/>
<path fill-rule="evenodd" clip-rule="evenodd" d="M47.8684 48.4201H1.13086V46.5176H2.11086V30.6251C2.11086 30.0994 2.53648 29.6738 3.06211 29.6738H11.2984V29.0938C11.2984 28.5682 11.724 28.1426 12.2496 28.1426H36.7496C37.2752 28.1426 37.7009 28.5682 37.7009 29.0938V29.6738H45.9371C46.4627 29.6738 46.8884 30.0994 46.8884 30.6251V46.5176H47.8684V48.4201ZM46.4884 46.9176V30.6251C46.4884 30.3204 46.2418 30.0738 45.9371 30.0738H37.3009V29.0938C37.3009 28.7891 37.0543 28.5426 36.7496 28.5426H12.2496C11.9449 28.5426 11.6984 28.7891 11.6984 29.0938V30.0738H3.06211C2.75739 30.0738 2.51086 30.3204 2.51086 30.6251V46.9176H1.53086V48.0201H47.4684V46.9176H46.4884ZM42.2945 46.3376H40.3921V40.9438H42.2963L42.2945 46.3376ZM31.5757 46.3376H29.6734V40.9438H31.5775L31.5757 46.3376ZM25.4509 46.3376H23.5484V40.9438H25.4509V46.3376ZM19.3259 46.3376H17.4234V40.9438H19.3259V46.3376ZM8.60711 46.3376H6.70461V40.9438H8.60711V46.3376ZM42.2945 38.6813H40.3921V33.2876H42.2963L42.2945 38.6813ZM31.5757 38.6813H29.6734V33.2876H31.5775L31.5757 38.6813ZM25.4509 38.6813H23.5484V33.2876H25.4509V38.6813ZM19.3259 38.6813H17.4234V33.2876H19.3259V38.6813ZM8.60711 38.6813H6.70461V33.2876H8.60711V38.6813ZM34.6384 26.4313H32.7359V20.8576H16.2634V26.4313H14.3609V19.9063C14.3609 14.6363 18.4019 10.2925 23.5484 9.81171V3.06258C23.5484 2.53695 23.974 2.11133 24.4996 2.11133H29.0934C29.619 2.11133 30.0446 2.53694 30.0446 3.06258V6.12508C30.0446 6.65071 29.619 7.07633 29.0934 7.07633H25.4509V9.81182C30.5972 10.294 34.6384 14.6361 34.6384 19.9063V26.4313ZM23.9484 10.1829C18.834 10.4692 14.7609 14.7215 14.7609 19.9063V26.0313H15.8634V20.4576H33.1359V26.0313H34.2384V19.9063C34.2384 14.7215 30.1652 10.4708 25.0509 10.1829V6.67633H29.0934C29.3981 6.67633 29.6446 6.4298 29.6446 6.12508V3.06258C29.6446 2.75786 29.3981 2.51133 29.0934 2.51133H24.4996C24.1949 2.51133 23.9484 2.75786 23.9484 3.06258V10.1829ZM30.0444 26.4313H28.1421V22.5688H30.0463L30.0444 26.4313ZM25.4509 26.4313H23.5484V22.5688H25.4509V26.4313ZM20.8571 26.4313H18.9546V22.5688H20.8571V26.4313ZM45.3843 46.9176H37.3009V31.1763H45.3843V46.9176ZM44.9843 31.5763H37.7009V46.5176H44.9843V31.5763ZM36.1984 46.9176H12.8009V29.6451H36.1984V46.9176ZM35.7984 30.0451H13.2009V46.5176H35.7984V30.0451ZM11.6984 46.9176H3.61336V31.1763H11.6984V46.9176ZM11.2984 31.5763H4.01336V46.5176H11.2984V31.5763ZM41.8946 45.9376H40.7921V41.3438H41.8961L41.8946 45.9376ZM31.1759 45.9376H30.0734V41.3438H31.1774L31.1759 45.9376ZM41.8946 38.2813H40.7921V33.6876H41.8961L41.8946 38.2813ZM31.1759 38.2813H30.0734V33.6876H31.1774L31.1759 38.2813ZM33.119 19.3551C33.1105 19.2209 33.0989 19.0875 33.0843 18.9551C32.6083 14.6387 28.9402 11.2701 24.4996 11.2701C20.059 11.2701 16.391 14.6387 15.9163 18.9551C15.9018 19.0875 15.8902 19.2209 15.8817 19.3551H33.119ZM16.3189 18.9551C16.7914 14.8601 20.2803 11.6701 24.4996 11.6701C28.7189 11.6701 32.2078 14.86 32.6817 18.9551H16.3189ZM28.5421 5.57383H25.0509V3.61383H28.5421V5.57383ZM28.1421 4.01383H25.4509V5.17383H28.1421V4.01383ZM29.6446 26.0313H28.5421V22.9688H29.6461L29.6446 26.0313ZM25.0509 45.9376V41.3438H23.9484V45.9376H25.0509ZM18.9259 45.9376V41.3438H17.8234V45.9376H18.9259ZM8.20711 45.9376V41.3438H7.10461V45.9376H8.20711ZM25.0509 38.2813V33.6876H23.9484V38.2813H25.0509ZM18.9259 38.2813V33.6876H17.8234V38.2813H18.9259ZM8.20711 38.2813V33.6876H7.10461V38.2813H8.20711ZM25.0509 26.0313V22.9688H23.9484V26.0313H25.0509ZM20.4571 26.0313V22.9688H19.3546V26.0313H20.4571Z" fill="url(#paint1_linear_507_2016)"/>
<defs>
<linearGradient id="paint0_linear_507_2016" x1="-2.13009" y1="7.21893" x2="46.1694" y2="42.2356" gradientUnits="userSpaceOnUse">
<stop stop-color="#056CB7"/>
<stop offset="1" stop-color="#8912B2"/>
</linearGradient>
<linearGradient id="paint1_linear_507_2016" x1="-2.59425" y1="6.90179" x2="46.5518" y2="42.5265" gradientUnits="userSpaceOnUse">
<stop stop-color="#056CB7"/>
<stop offset="1" stop-color="#8912B2"/>
</linearGradient>
</defs>
</svg>
