<svg width="62" height="56" viewBox="0 0 62 56" fill="none" xmlns="http://www.w3.org/2000/svg">
<path d="M16.5125 27.4516C8.49901 27.4516 1.97949 22.016 1.97949 15.3348V4.22763C1.97949 3.66996 2.47999 3.2179 3.09742 3.2179H7.56912C8.18655 3.2179 8.68704 3.66996 8.68704 4.22763C8.68704 4.78531 8.18655 5.23737 7.56912 5.23737H4.21534V15.3348C4.21534 20.9025 9.73185 25.4321 16.5125 25.4321C23.2932 25.4321 28.8097 20.9026 28.8097 15.3348V5.23737H25.4559C24.8385 5.23737 24.338 4.78531 24.338 4.22763C24.338 3.66996 24.8385 3.2179 25.4559 3.2179H29.9276C30.5449 3.2179 31.0455 3.66996 31.0455 4.22763V15.3348C31.0457 22.0161 24.5261 27.4516 16.5125 27.4516Z" fill="url(#paint0_linear_507_1744)"/>
<path d="M10.9238 7.25686C10.8051 7.25686 10.6858 7.2398 10.5704 7.20506L7.21659 6.19532C6.76014 6.0579 6.45215 5.67198 6.45215 5.23738V3.21791C6.45215 2.78332 6.76003 2.39749 7.21659 2.25997L10.5704 1.25023C10.9111 1.14754 11.2859 1.19914 11.5775 1.38907C11.8689 1.5788 12.0418 1.88364 12.0418 2.20817V6.24712C12.0418 6.57165 11.8691 6.87649 11.5775 7.06622C11.3848 7.19173 11.1555 7.25686 10.9238 7.25686ZM8.688 4.50956L9.80592 4.84611V3.60908L8.688 3.94563V4.50956Z" fill="url(#paint1_linear_507_1744)"/>
<path d="M22.0995 7.25679C21.8677 7.25679 21.6386 7.19167 21.4457 7.06616C21.1543 6.87643 20.9814 6.57159 20.9814 6.24706V2.2081C20.9814 1.88357 21.1542 1.57873 21.4457 1.389C21.7373 1.19917 22.1121 1.14757 22.4529 1.25016L25.8066 2.2599C26.2631 2.39733 26.5711 2.78325 26.5711 3.21784V5.23732C26.5711 5.67191 26.2632 6.05773 25.8066 6.19526L22.4529 7.20499C22.3375 7.23973 22.2181 7.25679 22.0995 7.25679ZM23.2173 3.60901V4.84614L24.3352 4.5096V3.94566L23.2173 3.60901Z" fill="url(#paint2_linear_507_1744)"/>
<path d="M31.6044 50.6756C22.5147 50.6756 15.3945 43.5792 15.3945 34.5198V26.4419C15.3945 25.8842 15.895 25.4322 16.5125 25.4322C17.1299 25.4322 17.6304 25.8842 17.6304 26.4419V34.5198C17.6304 42.4468 23.7686 48.6562 31.6044 48.6562C39.4403 48.6562 45.5785 42.4468 45.5785 34.5198V21.3932C45.5785 20.8355 46.0791 20.3835 46.6964 20.3835C47.3137 20.3835 47.8144 20.8355 47.8144 21.3932V34.5198C47.8144 43.5792 40.6941 50.6756 31.6044 50.6756Z" fill="url(#paint3_linear_507_1744)"/>
<path d="M46.6973 22.4028C41.7659 22.4028 37.7539 18.779 37.7539 14.3249C37.7539 9.8707 41.7659 6.24695 46.6973 6.24695C51.6287 6.24695 55.6407 9.8707 55.6407 14.3249C55.6407 18.779 51.6287 22.4028 46.6973 22.4028ZM46.6973 8.26643C42.9988 8.26643 39.9898 10.9842 39.9898 14.3249C39.9898 17.6655 42.9988 20.3833 46.6973 20.3833C50.3959 20.3833 53.4049 17.6655 53.4049 14.3249C53.4049 10.9842 50.3959 8.26643 46.6973 8.26643Z" fill="url(#paint4_linear_507_1744)"/>
<path d="M46.6953 18.3637C44.2296 18.3637 42.2236 16.5519 42.2236 14.3248C42.2236 12.0977 44.2296 10.2858 46.6953 10.2858C49.161 10.2858 51.167 12.0977 51.167 14.3248C51.167 16.5519 49.1609 18.3637 46.6953 18.3637ZM46.6953 12.3053C45.4625 12.3053 44.4595 13.2112 44.4595 14.3248C44.4595 15.4383 45.4625 16.3443 46.6953 16.3443C47.9282 16.3443 48.9312 15.4383 48.9312 14.3248C48.9312 13.2112 47.9282 12.3053 46.6953 12.3053Z" fill="url(#paint5_linear_507_1744)"/>
<defs>
<linearGradient id="paint0_linear_507_1744" x1="3.77205" y1="3.65001" x2="24.4503" y2="35.6701" gradientUnits="userSpaceOnUse">
<stop stop-color="#056CB7"/>
<stop offset="1" stop-color="#8912B2"/>
</linearGradient>
<linearGradient id="paint1_linear_507_1744" x1="6.79687" y1="1.30639" x2="12.383" y2="7.96023" gradientUnits="userSpaceOnUse">
<stop stop-color="#056CB7"/>
<stop offset="1" stop-color="#8912B2"/>
</linearGradient>
<linearGradient id="paint2_linear_507_1744" x1="21.3262" y1="1.30639" x2="26.9122" y2="7.96022" gradientUnits="userSpaceOnUse">
<stop stop-color="#056CB7"/>
<stop offset="1" stop-color="#8912B2"/>
</linearGradient>
<linearGradient id="paint3_linear_507_1744" x1="17.3939" y1="20.9236" x2="44.3321" y2="58.145" gradientUnits="userSpaceOnUse">
<stop stop-color="#056CB7"/>
<stop offset="1" stop-color="#8912B2"/>
</linearGradient>
<linearGradient id="paint4_linear_507_1744" x1="38.857" y1="6.53502" x2="53.0653" y2="26.8441" gradientUnits="userSpaceOnUse">
<stop stop-color="#056CB7"/>
<stop offset="1" stop-color="#8912B2"/>
</linearGradient>
<linearGradient id="paint5_linear_507_1744" x1="42.7752" y1="10.4299" x2="49.8793" y2="20.5844" gradientUnits="userSpaceOnUse">
<stop stop-color="#056CB7"/>
<stop offset="1" stop-color="#8912B2"/>
</linearGradient>
</defs>
</svg>
