<svg width="57" height="56" viewBox="0 0 57 56" fill="none" xmlns="http://www.w3.org/2000/svg">
<path d="M13.8 23.2727C14.2387 23.2727 14.6675 23.4007 15.0322 23.6404C15.3969 23.8802 15.6812 24.2209 15.8491 24.6196C16.0169 25.0183 16.0609 25.457 15.9753 25.8802C15.8897 26.3034 15.6785 26.6922 15.3683 26.9973C15.0581 27.3025 14.6629 27.5103 14.2327 27.5944C13.8025 27.6786 13.3566 27.6354 12.9513 27.4703C12.546 27.3051 12.1996 27.0255 11.9559 26.6667C11.7122 26.3079 11.5822 25.8861 11.5822 25.4545C11.5822 24.8759 11.8158 24.3209 12.2318 23.9118C12.6477 23.5026 13.2118 23.2727 13.8 23.2727ZM13.8 20.3636C12.7765 20.3636 11.776 20.6622 10.9249 21.2216C10.0739 21.781 9.41061 22.5761 9.01893 23.5063C8.62724 24.4366 8.52476 25.4602 8.72444 26.4477C8.92412 27.4353 9.41699 28.3424 10.1407 29.0544C10.8645 29.7663 11.7866 30.2512 12.7904 30.4476C13.7943 30.6441 14.8348 30.5432 15.7804 30.1579C16.7261 29.7726 17.5343 29.1201 18.1029 28.2829C18.6716 27.4457 18.9751 26.4614 18.9751 25.4545C18.9751 24.1044 18.4298 22.8095 17.4593 21.8547C16.4888 20.9 15.1725 20.3636 13.8 20.3636Z" fill="url(#paint0_linear_507_1512)"/>
<path d="M37.4576 21.5734H25.6289C24.8446 21.5734 24.0925 21.8927 23.5379 22.4611C22.9833 23.0294 22.6718 23.8003 22.6718 24.604V33.6958H6.40736V16.4214L24.1503 6.63263L42.677 16.8457L44.0668 14.1788L24.8453 3.57173C24.6313 3.455 24.3927 3.39394 24.1503 3.39394C23.908 3.39394 23.6693 3.455 23.4554 3.57173L4.23384 14.1788C3.99775 14.3076 3.80017 14.4997 3.66217 14.7345C3.52417 14.9694 3.45091 15.2381 3.4502 15.5123V45.8182H6.40736V36.7264H41.8933V45.8182H44.8505V29.1499C44.8505 27.1405 44.0716 25.2134 42.6852 23.7925C41.2987 22.3717 39.4183 21.5734 37.4576 21.5734ZM25.6289 33.6958V24.604H37.4576C38.634 24.604 39.7623 25.083 40.5941 25.9355C41.426 26.788 41.8933 27.9443 41.8933 29.1499V33.6958H25.6289Z" fill="url(#paint1_linear_507_1512)"/>
<defs>
<linearGradient id="paint0_linear_507_1512" x1="7.80007" y1="21.4169" x2="18.6296" y2="29.3235" gradientUnits="userSpaceOnUse">
<stop stop-color="#056CB7"/>
<stop offset="1" stop-color="#8912B2"/>
</linearGradient>
<linearGradient id="paint1_linear_507_1512" x1="0.15048" y1="7.78256" x2="44.6826" y2="38.9947" gradientUnits="userSpaceOnUse">
<stop stop-color="#056CB7"/>
<stop offset="1" stop-color="#8912B2"/>
</linearGradient>
</defs>
</svg>
