<svg width="57" height="56" viewBox="0 0 57 56" fill="none" xmlns="http://www.w3.org/2000/svg">
<path fill-rule="evenodd" clip-rule="evenodd" d="M17.7676 2.60984C16.7639 2.60984 15.9503 3.49771 15.9503 4.59291V11.5481H34.65V4.59291C34.65 3.49769 33.8365 2.60984 32.8328 2.60984H17.7676ZM37.0416 11.5481V4.59291C37.0416 2.05635 35.1573 0 32.8328 0H17.7676C15.4431 0 13.5587 2.05633 13.5587 4.59291V11.5481H4.20885C1.88439 11.5481 0 13.6044 0 16.141V45.6928C0 48.2295 1.8844 50.2857 4.20885 50.2857H46.3915C48.716 50.2857 50.6004 48.2294 50.6004 45.6928V16.141C50.6004 13.6044 48.716 11.5481 46.3915 11.5481H37.0416ZM4.20885 14.1579C3.20522 14.1579 2.39161 15.0458 2.39161 16.141V23.4165L23.6042 32.0972C23.6042 32.0972 23.6042 32.0973 23.6043 32.0973C24.6976 32.5445 25.9028 32.5445 26.9961 32.0973C26.9961 32.0973 26.9962 32.0972 26.9962 32.0972L48.2087 23.4165V16.141C48.2087 15.0457 47.3952 14.1579 46.3915 14.1579H4.20885ZM48.2087 26.2039L27.8357 34.541C26.201 35.2097 24.3993 35.2097 22.7647 34.541L22.7645 34.5409L2.39161 26.2039V45.6928C2.39161 46.7881 3.20521 47.6759 4.20885 47.6759H46.3915C47.3952 47.6759 48.2087 46.7881 48.2087 45.6928V26.2039Z" fill="url(#paint0_linear_562_992)"/>
<defs>
<linearGradient id="paint0_linear_562_992" x1="-4.03299" y1="5.20186" x2="49.284" y2="43.7351" gradientUnits="userSpaceOnUse">
<stop stop-color="#056CB7"/>
<stop offset="1" stop-color="#8912B2"/>
</linearGradient>
</defs>
</svg>
