<svg width="52" height="54" viewBox="0 0 52 54" fill="none" xmlns="http://www.w3.org/2000/svg">
<path d="M50.7406 51.3781V15.1281H49.8344H39.8656V51.3781H38.1438V24.1906H37.2375H27.2688V51.3781H25.5469V20.5656H24.6406H14.6719V51.3781H12.95V27.8156H12.0438H2.075V51.3781H0.625V53.1906H2.075H12.95H14.6719H25.5469H27.2688H38.1438H39.8656H50.7406H51.375V51.3781H50.7406ZM3.8875 51.3781V29.6281H11.1375V51.3781H3.8875ZM16.4844 22.3781H23.7344V51.3781H16.4844V22.3781ZM29.0813 51.3781V26.0031H36.3313V51.3781H29.0813ZM41.6781 16.9406H48.9281V51.3781H41.6781V16.9406Z" fill="#EEEEEE"/>
<path d="M20.7437 9.32814L30.2594 18.6625L46.7531 2.16876L45.4844 0.809387L30.2594 16.0344L20.6531 6.70001L4.70312 22.9219L6.0625 24.1906L20.7437 9.32814Z" fill="#EEEEEE"/>
</svg>
