<svg width="57" height="56" viewBox="0 0 57 56" fill="none" xmlns="http://www.w3.org/2000/svg">
<path d="M48.662 8.29071V2.70968C48.662 1.21574 47.4262 0 45.9076 0H11.0187C9.50011 0 8.26336 1.21574 8.26336 2.70968V8.28981C2.75445 13.5701 0 20.5511 0 28C0 43.4397 12.7678 56 28.4627 56C44.1576 56 56.9254 43.4397 56.9254 28C56.9254 20.552 53.9901 13.571 48.662 8.29071ZM48.662 10.9489C48.8833 11.2018 49.0982 11.4583 49.3093 11.7185C49.145 11.8901 48.9301 12.096 48.662 12.3326V10.9489ZM48.662 26.1935V14.6503C49.4278 14.0948 50.009 13.5872 50.4203 13.1826C53.284 17.2661 54.8935 22.0532 55.0661 27.0968H48.4931C48.5959 26.8132 48.662 26.5115 48.662 26.1935ZM10.0997 2.70968C10.0997 2.2111 10.5119 1.80645 11.0187 1.80645H45.9076C46.4144 1.80645 46.8257 2.2111 46.8257 2.70968V21.6774H10.0997V2.70968ZM10.0997 23.4839H46.8257V26.1935C46.8257 26.6921 46.4144 27.0968 45.9076 27.0968H11.0187C10.5119 27.0968 10.0997 26.6921 10.0997 26.1935V23.4839ZM39.4805 30.7097V28.9032H41.2939C41.2746 29.5138 41.2406 30.1172 41.1846 30.7097H39.4805ZM40.9569 32.5161C40.6861 34.2295 40.272 35.8608 39.756 37.4035C36.9437 36.6963 33.5171 36.2058 29.3808 36.1408V32.5161H40.9569ZM17.4449 28.9032V30.7097H15.7408C15.6848 30.1172 15.6508 29.5138 15.6315 28.9032H17.4449ZM8.26428 10.9471V12.3326C7.99618 12.096 7.78133 11.8892 7.61698 11.7175C7.82816 11.4574 8.04301 11.2009 8.26428 10.9471ZM6.50419 13.1835C6.91552 13.5881 7.34521 14.0957 8.26336 14.6512V26.1935C8.26336 26.5115 8.33039 26.8132 8.43322 27.0968H1.85926C2.03095 22.0532 3.64047 17.2661 6.50419 13.1835ZM1.85926 28.9032H11.0187H13.7943C13.8118 29.5138 13.8448 30.1163 13.8962 30.7097H11.936V32.5161H14.1001C14.3764 34.4147 14.8171 36.2121 15.3726 37.9057C10.4614 39.4348 7.74644 41.5791 6.50969 42.8003C3.7277 38.8188 2.0383 34.0471 1.85926 28.9032ZM7.62433 44.2761C8.56544 43.3115 11.0894 41.1627 15.9914 39.6326C18.7055 46.6146 23.2586 51.6013 25.8854 54.068C18.5063 53.368 12.003 49.6901 7.62433 44.2761ZM27.5445 53.0997C25.1831 50.9148 20.551 46.0203 17.802 39.1277C20.4417 38.4711 23.6598 38.0114 27.5445 37.9472V53.0997ZM27.5445 36.1408C23.4083 36.2049 19.9817 36.6963 17.1694 37.4035C16.6534 35.8608 16.2393 34.2295 15.9685 32.5161H27.5445V36.1408ZM19.2812 30.7097V28.9032H37.6442V30.7097H19.2812ZM29.3808 53.0997V37.9472C33.2655 38.0105 36.4837 38.4711 39.1234 39.1277C36.3744 46.0203 31.7423 50.9148 29.3808 53.0997ZM31.0399 54.0689C33.6677 51.6022 38.2208 46.6155 40.934 39.6335C45.836 41.1627 48.36 43.3124 49.3011 44.277C44.9224 49.6901 38.4191 53.368 31.0399 54.0689ZM50.4157 42.8003C49.179 41.5791 46.464 39.4348 41.5528 37.9057C42.1083 36.2112 42.549 34.4138 42.8253 32.5161H44.9894V30.7097H43.0292C43.0806 30.1163 43.1127 29.5138 43.1311 28.9032H45.9076H55.0661C54.888 34.0471 53.1986 38.8188 50.4157 42.8003Z" fill="url(#paint0_linear_562_1953)"/>
<path d="M33.6024 7.96284L34.9548 6.63238L33.6566 5.35522L32.3041 6.68567C31.464 6.06606 30.4669 5.64516 29.3807 5.49161V3.6129H27.5444V5.49161C26.4583 5.64516 25.4611 6.06606 24.621 6.68567L23.2686 5.35522L21.9703 6.63238L23.3228 7.96284C22.6929 8.78929 22.2651 9.77019 22.109 10.8387H20.1992V12.6452H22.109C22.2651 13.7137 22.6929 14.6946 23.3228 15.521L21.9703 16.8515L23.2686 18.1286L24.621 16.7982C25.4611 17.4178 26.4583 17.8378 27.5444 17.9923V19.871H29.3807V17.9923C30.4669 17.8387 31.464 17.4178 32.3041 16.7982L33.6566 18.1286L34.9548 16.8515L33.6024 15.521C34.2322 14.6946 34.6592 13.7137 34.8162 12.6452H36.7259V10.8387H34.8162C34.6601 9.77019 34.2322 8.78929 33.6024 7.96284ZM28.4626 16.2581C25.9312 16.2581 23.8718 14.2321 23.8718 11.7419C23.8718 9.25174 25.9312 7.2258 28.4626 7.2258C30.9939 7.2258 33.0533 9.25174 33.0533 11.7419C33.0533 14.2321 30.9939 16.2581 28.4626 16.2581Z" fill="url(#paint1_linear_562_1953)"/>
<defs>
<linearGradient id="paint0_linear_562_1953" x1="9.25038" y1="3.5" x2="56.1793" y2="49.0684" gradientUnits="userSpaceOnUse">
<stop stop-color="#056CB7"/>
<stop offset="1" stop-color="#8912B2"/>
</linearGradient>
<linearGradient id="paint1_linear_562_1953" x1="28.4626" y1="3.6129" x2="28.4626" y2="19.871" gradientUnits="userSpaceOnUse">
<stop stop-color="#056CB7"/>
<stop offset="1" stop-color="#666666"/>
</linearGradient>
</defs>
</svg>
