<svg width="80" height="80" viewBox="0 0 80 80" fill="none" xmlns="http://www.w3.org/2000/svg">
<path d="M40 40L55 25" stroke="white" stroke-width="2" stroke-miterlimit="10" stroke-linecap="round" stroke-linejoin="round"/>
<path d="M75 15H65V5L55 15V25H65L75 15Z" stroke="white" stroke-width="2" stroke-miterlimit="10" stroke-linecap="round" stroke-linejoin="round"/>
<path d="M40 55C48.2843 55 55 48.2843 55 40C55 31.7157 48.2843 25 40 25C31.7157 25 25 31.7157 25 40C25 48.2843 31.7157 55 40 55Z" stroke="white" stroke-width="2" stroke-miterlimit="10" stroke-linecap="round" stroke-linejoin="round"/>
<path d="M67.5 22.5C70.75 27.5 72.5 33.5 72.5 40C72.5 58 58 72.5 40 72.5C22 72.5 7.5 58 7.5 40C7.5 22 22 7.5 40 7.5C46.5 7.5 52.5 9.25 57.5 12.5" stroke="white" stroke-width="2" stroke-miterlimit="10" stroke-linecap="round" stroke-linejoin="round"/>
</svg>
