<svg width="62" height="62" viewBox="0 0 62 62" fill="none" xmlns="http://www.w3.org/2000/svg">
<path d="M31 11.3344C27.5125 11.3344 24.025 12.6906 21.4094 15.3063C18.7938 17.9219 17.4375 21.4094 17.4375 24.8969C17.4375 28.3844 18.7938 31.8719 21.4094 34.4875C24.025 37.1031 27.5125 38.4594 31 38.4594C34.4875 38.4594 37.975 37.1031 40.5906 34.4875C43.2063 31.8719 44.5625 28.3844 44.5625 24.8969C44.5625 21.4094 43.2063 17.9219 40.5906 15.3063C37.975 12.6906 34.4875 11.3344 31 11.3344ZM39.2344 33.1313C37.0063 35.3594 34.0031 36.5219 31 36.5219C27.9969 36.5219 25.0906 35.3594 22.7656 33.1313C20.5375 30.9031 19.375 27.9 19.375 24.8969C19.375 21.8938 20.5375 18.9875 22.7656 16.6625C24.9938 14.4344 27.9969 13.2719 31 13.2719C34.0031 13.2719 36.9094 14.4344 39.2344 16.6625C41.4625 18.8906 42.625 21.8938 42.625 24.8969C42.625 27.9 41.4625 30.8063 39.2344 33.1313Z" fill="#EEEEEE"/>
<path d="M28.4812 25.3813L24.8969 21.7969L24.2187 22.475L21.3125 25.575L28.5781 32.8406L40.5906 20.8281L36.8125 17.05L28.4812 25.3813ZM28.5781 30.1281L24.025 25.575L24.9937 24.5094L28.5781 28.0938L36.9094 19.7625L37.975 20.8281L28.5781 30.1281Z" fill="#EEEEEE"/>
<path d="M51.6344 22.5719C51.5375 21.9906 51.3438 21.6031 51.15 21.1188C50.7625 20.5375 50.2781 20.0531 49.9875 19.5688C49.6 19.1813 49.3094 18.6969 49.2125 18.4063C49.1156 18.2125 49.1157 17.9219 49.1157 17.5344C49.1157 17.05 49.1157 16.5656 49.1157 15.9844C49.1157 15.3063 49.0188 14.5313 48.6313 13.7563C48.3406 13.2719 47.9531 12.9813 47.5656 12.6906C46.9844 12.3031 46.4031 12.1094 45.8219 11.8188C45.3375 11.625 44.8531 11.3344 44.6594 11.1406C44.3688 10.85 44.0781 10.1719 43.6906 9.39689C43.4969 9.00939 43.3031 8.62189 43.1094 8.23439C42.8188 7.84689 42.5281 7.45939 42.0438 7.16876C41.3657 6.78126 40.5906 6.78126 39.8156 6.78126C39.2344 6.78126 38.75 6.78126 38.2656 6.78126C37.8781 6.78126 37.5875 6.78126 37.3938 6.68439C37.0063 6.58751 36.425 6.10314 35.8438 5.52189C35.5531 5.23126 35.1656 4.94064 34.7782 4.74689C34.3906 4.45626 33.9063 4.26251 33.325 4.26251C33.2281 4.26251 33.1313 4.26251 33.0344 4.26251C32.55 4.26251 32.0656 4.35939 31.6782 4.55314C31 4.74689 30.5156 5.03751 30.0313 5.32814C29.5469 5.61876 29.1594 5.71564 28.8688 5.81251H28.675C28.2875 5.81251 27.8031 5.71564 27.2219 5.52189C26.6406 5.32814 25.9625 5.13439 25.1875 5.13439C24.8969 5.13439 24.5094 5.13439 24.1219 5.32814C23.6375 5.52189 23.1531 5.81251 22.8625 6.10314C22.3781 6.58751 21.9906 7.16876 21.7 7.65314C21.3125 8.13751 21.0219 8.52501 20.7313 8.62189C20.5375 8.71876 20.3438 8.81564 20.0531 8.81564C19.5688 8.91251 18.9875 9.00939 18.3094 9.20314C17.6313 9.39689 16.9531 9.59064 16.3719 10.1719C15.9844 10.5594 15.7906 11.0438 15.5969 11.4313C15.4031 12.1094 15.3063 12.7875 15.2094 13.3688C15.1125 13.95 15.0156 14.4344 14.8219 14.6281C14.6281 15.0156 14.0469 15.4031 13.3688 15.8875C13.0781 16.1781 12.6906 16.3719 12.3031 16.7594C12.0125 17.05 11.625 17.5344 11.5281 18.0188C11.4313 18.4063 11.3344 18.6969 11.3344 19.0844C11.3344 19.8594 11.5281 20.5375 11.7219 21.1188C11.9156 21.7 12.0125 22.2813 12.0125 22.5719V22.7656C12.0125 23.1531 11.7219 23.7344 11.3344 24.4125C11.1406 24.8 10.9469 25.0906 10.7531 25.575C10.5594 25.9625 10.4625 26.4469 10.4625 26.9313C10.4625 27.0281 10.4625 27.125 10.4625 27.2219C10.5594 27.8031 10.7531 28.1906 10.9469 28.675C11.3344 29.2563 11.8188 29.7406 12.1094 30.225C12.4969 30.6125 12.7875 31.0969 12.8844 31.3875C12.9813 31.5813 12.9813 31.8719 12.9813 32.2594C12.9813 32.7438 12.9813 33.2281 12.9813 33.8094C12.9813 34.4875 13.0781 35.2625 13.4656 36.0375C13.7563 36.5219 14.1438 36.8125 14.5313 37.1031C15.1125 37.4906 15.6938 37.6844 16.275 37.975C16.7594 38.1688 17.2438 38.4594 17.4375 38.6531C17.7281 38.9438 18.0188 39.6219 18.4063 40.3969C18.6 40.7844 18.7938 41.1719 18.9875 41.5594C19.2781 41.9469 19.5688 42.3344 20.0531 42.625C20.15 42.7219 20.3438 42.7219 20.4406 42.8188L16.3719 54.9281L22.7656 52.8938L26.6406 58.4156L31.0969 45.1438C31.0969 45.1438 31.1938 45.1438 31.1938 45.0469L35.65 58.3188L39.525 52.7969L45.9188 54.8313L41.3656 41.2688L41.4625 41.1719C41.6563 41.075 41.85 40.9781 42.2375 40.8813C42.7219 40.7844 43.3032 40.6875 43.9813 40.4938C44.6594 40.3 45.3375 40.1063 45.9188 39.525C46.3063 39.1375 46.5 38.6531 46.6938 38.2656C46.8875 37.5875 46.9844 36.9094 47.0813 36.3281C47.1781 35.7469 47.275 35.2625 47.4688 35.0688C47.6625 34.6813 48.2438 34.2938 48.9219 33.8094C49.2125 33.5188 49.6 33.325 49.9875 32.9375C50.2781 32.6469 50.6656 32.1625 50.7625 31.6781C50.8594 31.2906 50.9563 31 50.9563 30.6125C50.9563 29.8375 50.7625 29.1594 50.5688 28.5781C50.375 27.9969 50.2781 27.4156 50.2781 27.125V26.9313C50.2781 26.5438 50.5688 25.9625 50.9563 25.2844C51.15 24.8969 51.3438 24.6063 51.5375 24.1219C51.7313 23.7344 51.8281 23.25 51.8281 22.7656C51.7313 22.7656 51.6344 22.6688 51.6344 22.5719ZM25.8656 54.0563L23.4438 50.5688L19.375 51.8281L22.3781 43.0125C22.8625 43.0125 23.4438 43.0125 23.8313 43.0125C24.2188 43.0125 24.5094 43.0125 24.7031 43.1094C25.0906 43.2063 25.6719 43.6906 26.2531 44.2719C26.5438 44.5625 26.9313 44.8531 27.3188 45.0469C27.7063 45.3375 28.1906 45.5313 28.7719 45.5313L25.8656 54.0563ZM38.5563 50.5688L36.1344 54.0563L32.8407 44.175C32.9375 44.175 33.1313 44.0781 33.2281 44.0781H33.4219C33.8094 44.0781 34.2938 44.175 34.875 44.3688C35.4563 44.5625 36.1344 44.7563 36.9094 44.7563C37.2 44.7563 37.5875 44.7563 37.975 44.5625C38.4594 44.3688 38.9438 44.0781 39.2344 43.7875C39.4281 43.5938 39.6219 43.3031 39.8156 43.1094L42.7219 51.925L38.5563 50.5688ZM49.6 23.5406C49.4063 23.9281 49.2125 24.4125 48.9219 24.9938C48.6313 25.575 48.3406 26.1563 48.2438 26.8344C48.2438 26.9313 48.2438 27.125 48.2438 27.2219C48.2438 27.9969 48.4375 28.675 48.6313 29.2563C48.825 29.8375 48.9219 30.4188 48.9219 30.7094C48.9219 30.9031 48.9219 31 48.825 31.0969C48.7281 31.2906 48.6313 31.3875 48.4375 31.5813C48.1469 31.8719 47.6625 32.2594 47.1782 32.55C46.6938 32.9375 46.1125 33.325 45.725 34.0031C45.4344 34.3906 45.3375 34.875 45.2407 35.2625C45.0469 35.9406 45.0469 36.5219 44.8531 37.0063C44.7563 37.4906 44.5625 37.8781 44.3688 38.0719C44.2719 38.1688 44.0781 38.2656 43.7875 38.3625C43.4 38.5563 42.8188 38.5563 42.2375 38.75C41.6563 38.8469 40.9781 39.0406 40.3 39.4281C39.4281 40.0094 38.9438 40.7844 38.4594 41.3656C38.2656 41.6563 37.975 41.9469 37.7813 42.1406C37.5875 42.3344 37.3938 42.4313 37.2969 42.5281C37.2 42.5281 37.1031 42.625 36.9094 42.625C36.5219 42.625 36.0375 42.5281 35.4563 42.3344C34.875 42.1406 34.1969 41.9469 33.4219 41.9469C33.325 41.9469 33.1313 41.9469 33.0344 41.9469C32.0656 42.0438 31.2906 42.5281 30.6125 42.9156C30.3219 43.1094 29.9344 43.2063 29.7407 43.4C29.45 43.4969 29.2563 43.5938 29.0625 43.5938H28.9656C28.7719 43.5938 28.5781 43.4969 28.3844 43.4C27.9969 43.2063 27.6094 42.8188 27.125 42.3344C26.6406 41.9469 26.0594 41.4625 25.3813 41.2688C24.8 41.075 24.3156 41.075 23.8313 41.075C23.25 41.075 22.6688 41.1719 22.2813 41.075C21.7 41.075 21.3125 40.9781 21.1188 40.8813C21.0219 40.7844 20.8281 40.6875 20.7313 40.3969C20.5375 40.0094 20.2469 39.525 20.0531 38.9438C19.7625 38.3625 19.4719 37.6844 18.9875 37.2C18.2125 36.5219 17.3406 36.1344 16.6625 35.8438C16.275 35.65 15.9844 35.5531 15.7906 35.3594C15.5969 35.1656 15.4031 35.0688 15.3063 34.9719C15.2094 34.7781 15.1125 34.3906 15.1125 33.8094C15.1125 33.325 15.1125 32.8406 15.1125 32.2594C15.1125 31.775 15.1125 31.2906 14.9188 30.7094C14.5313 29.7406 13.95 29.0625 13.3688 28.4813C13.0781 28.1906 12.8844 27.9 12.7875 27.7063C12.5938 27.4156 12.5938 27.2219 12.5938 27.125V27.0281C12.5938 26.8344 12.5938 26.6406 12.7875 26.35C12.9813 25.9625 13.175 25.4781 13.4656 24.8969C13.7563 24.3156 14.0469 23.7344 14.1438 23.0563C14.1438 22.9594 14.1438 22.7656 14.1438 22.6688C14.1438 21.8938 13.95 21.2156 13.7563 20.6344C13.5625 20.0531 13.4656 19.4719 13.4656 19.1813C13.4656 18.9875 13.4656 18.8906 13.5625 18.7938C13.6594 18.6 13.7563 18.5031 13.95 18.3094C14.2406 18.0188 14.725 17.6313 15.2094 17.3406C15.6938 16.9531 16.275 16.5656 16.6625 15.8875C16.9531 15.5 17.05 15.0156 17.1469 14.6281C17.3406 13.95 17.3406 13.3688 17.5344 12.8844C17.6313 12.4 17.825 12.0125 18.0188 11.8188C18.1156 11.7219 18.3094 11.625 18.6 11.5281C18.9875 11.3344 19.5688 11.3344 20.15 11.1406C20.7313 11.0438 21.4094 10.85 22.0875 10.4625C22.9594 9.88126 23.4438 9.10626 23.9281 8.52501C24.1219 8.23439 24.4125 7.94376 24.6063 7.75001C24.8 7.55626 24.9938 7.45939 25.0906 7.36251C25.1875 7.36251 25.2844 7.26564 25.4781 7.26564C25.8656 7.26564 26.35 7.36251 26.9313 7.55626C27.5125 7.75001 28.1906 7.94376 28.9656 7.94376C29.0625 7.94376 29.2563 7.94376 29.3531 7.94376C30.3219 7.84689 31.0969 7.36251 31.775 6.97501C32.0656 6.78126 32.4531 6.68439 32.6469 6.49064C32.9375 6.39376 33.1313 6.29689 33.325 6.29689H33.4219C33.6156 6.29689 33.8094 6.39376 34.0031 6.49064C34.3906 6.68439 34.7782 7.07189 35.2625 7.55626C35.7469 7.94376 36.3281 8.42814 37.0063 8.62189C37.2969 8.71876 37.7813 8.71876 38.2656 8.71876C38.8469 8.71876 39.4281 8.62189 39.8156 8.71876C40.3969 8.71876 40.7844 8.81564 40.9781 8.91251C41.075 9.00939 41.2688 9.10626 41.3656 9.39689C41.5594 9.78439 41.85 10.2688 42.0438 10.85C42.3344 11.4313 42.625 12.1094 43.1094 12.5938C43.8844 13.2719 44.7563 13.6594 45.4344 13.95C45.8219 14.1438 46.1125 14.2406 46.3063 14.4344C46.5 14.6281 46.6938 14.725 46.7906 14.8219C46.8875 15.0156 46.9844 15.4031 46.9844 15.9844C46.9844 16.4688 46.9844 16.9531 46.9844 17.5344C46.9844 18.0188 46.9844 18.5031 47.1782 19.0844C47.5656 20.0531 48.1469 20.7313 48.7281 21.3125C49.0188 21.6031 49.2125 21.8938 49.3094 22.0875C49.5032 22.3781 49.5031 22.5719 49.5031 22.6688V22.7656C49.7938 23.0563 49.6969 23.25 49.6 23.5406Z" fill="#EEEEEE"/>
</svg>
