<svg width="92" height="92" viewBox="0 0 92 92" fill="none" xmlns="http://www.w3.org/2000/svg">
<path d="M66.1447 44.7142L36.2211 29.7525C35.7761 29.5321 35.2468 29.5531 34.8229 29.8156C34.3989 30.078 34.1406 30.5399 34.1406 31.0383V60.9619C34.1406 61.4603 34.3989 61.9221 34.8229 62.1846C35.0532 62.3278 35.3156 62.3994 35.5781 62.3994C35.7985 62.3994 36.0176 62.3489 36.2211 62.2479L66.1447 47.2861C66.6317 47.0417 66.9392 46.5448 66.9392 46.0001C66.9392 45.4554 66.6317 44.9585 66.1447 44.7142ZM37.0156 58.6359V33.3645L62.287 46.0001L37.0156 58.6359Z" fill="white"/>
<path d="M46 0C20.5949 0 0 20.5949 0 46C0 71.4051 20.5949 92 46 92C71.4051 92 92 71.4051 92 46C92 20.5949 71.4051 0 46 0ZM46 89.125C22.2207 89.125 2.875 69.7793 2.875 46C2.875 22.2209 22.2207 2.875 46 2.875C69.7791 2.875 89.125 22.2209 89.125 46C89.125 69.7793 69.7791 89.125 46 89.125Z" fill="white"/>
</svg>
