<svg width="57" height="56" viewBox="0 0 57 56" fill="none" xmlns="http://www.w3.org/2000/svg">
<path d="M38.4787 21.2766H17.9567V18.617H38.4787V21.2766ZM25.986 50.5319L28.7154 53.1915H6.41312C2.87821 53.1915 0 49.016 0 43.883C0 38.75 2.87821 34.5745 6.41312 34.5745H10.261V9.9734C10.261 4.4734 13.1392 0 16.6741 0H50.0223C53.5572 0 56.3072 4.17553 56.3072 9.30851C56.3072 14.4415 53.5572 18.617 50.0223 18.617H46.1744V37.6011L43.6092 40.2048V9.9734C43.5869 7.4347 44.1498 4.9272 45.251 2.65957H16.6741C14.8579 2.65957 12.8262 5.78723 12.8262 9.9734V34.5745H39.9409L38.1196 36.7713C36.6075 38.803 35.8272 41.3183 35.9135 43.883C35.914 44.4986 35.9543 45.1134 36.034 45.7234L33.3867 43.141C33.4501 41.0933 33.9236 39.0818 34.7771 37.234H6.41312C4.36349 37.234 2.56525 40.3404 2.56525 43.883C2.56525 47.4255 4.36349 50.5319 6.41312 50.5319H25.986ZM46.1744 15.9574H50.0223C52.0719 15.9574 53.9984 12.8511 53.9984 9.30851C53.9984 5.76596 52.0719 2.65957 50.0223 2.65957H48.2856C46.8507 4.80326 46.1113 7.36489 46.1744 9.9734V15.9574ZM17.9567 29.2553H38.4787V26.5957H17.9567V29.2553ZM38.4787 10.6383H17.9567V13.2979H38.4787V10.6383ZM55.1297 34.0931L37.1781 52.3138L29.9133 45.2314L28.1562 47.1676L37.2115 56L56.9254 35.9947L55.1297 34.0931Z" fill="url(#paint0_linear_562_958)"/>
<defs>
<linearGradient id="paint0_linear_562_958" x1="-4.53711" y1="5.79298" x2="55.0254" y2="49.2792" gradientUnits="userSpaceOnUse">
<stop stop-color="#056CB7"/>
<stop offset="1" stop-color="#8912B2"/>
</linearGradient>
</defs>
</svg>
