<svg width="57" height="56" viewBox="0 0 57 56" fill="none" xmlns="http://www.w3.org/2000/svg">
<path d="M10.1856 24.0113C9.38929 24.0113 8.59295 23.922 7.81002 23.7419C4.98639 23.0917 2.52893 21.3419 0.294733 18.3929C-0.196462 17.7442 -0.0595226 16.8276 0.59987 16.3444C1.25926 15.8612 2.19104 15.9944 2.68224 16.6431C4.50264 19.0503 6.34685 20.3975 8.48727 20.8909C10.7438 21.4122 13.1819 20.8616 15.1735 19.3842C16.0279 18.7516 16.8078 17.9155 17.6994 16.6724C18.1757 16.0134 19.103 15.8538 19.7743 16.3224C20.4456 16.788 20.6049 17.7017 20.1316 18.3636C19.4618 19.2963 18.4049 20.6581 16.9641 21.7241C14.9443 23.222 12.5642 24.0113 10.1856 24.0113Z" fill="url(#paint0_linear_507_1146)"/>
<path d="M40.4772 24.0113C39.6809 24.0113 38.8846 23.922 38.1002 23.7419C35.2765 23.0932 32.8176 21.342 30.5849 18.3929C30.0937 17.7443 30.2306 16.8276 30.8885 16.3444C31.5494 15.8597 32.4797 15.9959 32.9709 16.6431C34.7928 19.0504 36.637 20.3975 38.7759 20.891C41.0369 21.4123 43.4691 20.8602 45.4621 19.3842C46.315 18.7517 47.095 17.917 47.9881 16.6724C48.4614 16.0135 49.3887 15.8553 50.063 16.3224C50.7343 16.7881 50.8951 17.7018 50.4187 18.3636C49.7489 19.2964 48.6921 20.6596 47.2513 21.7241C45.2344 23.2221 42.8543 24.0113 40.4772 24.0113Z" fill="url(#paint1_linear_507_1146)"/>
<path d="M25.373 24.0114C24.5752 24.0114 23.7803 23.9221 22.9959 23.742C20.659 23.2046 18.6049 21.9409 16.7161 19.8807C16.1653 19.2803 16.2145 18.3535 16.8247 17.8131C17.435 17.2684 18.3757 17.3197 18.9264 17.9186C20.3941 19.5205 21.9465 20.4928 23.6732 20.8896C25.9312 21.4109 28.3678 20.8588 30.3594 19.3828C30.867 19.008 31.3522 18.5541 31.8479 17.9918C32.3837 17.3783 33.3289 17.3138 33.9466 17.8424C34.5688 18.371 34.6358 19.2965 34.0984 19.9071C33.4628 20.6289 32.8258 21.222 32.1485 21.7228C30.1316 23.2222 27.7516 24.0114 25.373 24.0114Z" fill="url(#paint2_linear_507_1146)"/>
<path d="M14.8227 3.63719C12.8713 3.63719 11.3352 3.62986 10.4927 3.61229C9.67109 3.59472 9.01765 2.92555 9.03551 2.11727C9.05338 1.31924 9.71574 0.683747 10.524 0.683747C10.5344 0.683747 10.5463 0.683747 10.5552 0.683747C13.1749 0.740854 22.7339 0.68814 30.4174 0.648604C34.5866 0.62664 38.2959 0.607605 40.2755 0.607605C41.0986 0.607605 41.764 1.26214 41.764 2.07188C41.764 2.88162 41.0986 3.53615 40.2755 3.53615C38.2988 3.53615 34.5955 3.55665 30.4338 3.57715C25.172 3.60351 19.0321 3.63719 14.8227 3.63719Z" fill="url(#paint3_linear_507_1146)"/>
<path d="M1.48849 18.9818C1.23843 18.9818 0.98539 18.9203 0.7517 18.7885C0.0372348 18.3888 -0.209851 17.4941 0.196501 16.7913C1.19973 15.0634 2.96208 12.0749 4.71252 9.1097C6.51208 6.05962 8.29973 3.03151 9.22853 1.4252C9.63489 0.722347 10.5429 0.476349 11.2588 0.876096C11.9733 1.27584 12.2218 2.17051 11.817 2.8719C10.8852 4.48406 9.09308 7.52097 7.28906 10.5798C5.54308 13.5391 3.78371 16.5204 2.78346 18.2438C2.50809 18.7183 2.00499 18.9818 1.48849 18.9818Z" fill="url(#paint4_linear_507_1146)"/>
<path d="M49.3075 18.9058C48.7895 18.9058 48.2879 18.6407 48.014 18.1678C47.0286 16.4692 45.3079 13.5539 43.5873 10.6385C41.7564 7.53423 39.9241 4.42997 38.979 2.79584C38.5726 2.09446 38.8227 1.19832 39.5371 0.800038C40.2561 0.400292 41.1611 0.647754 41.5659 1.34914C42.5081 2.97888 44.3345 6.07435 46.1608 9.16982C47.8845 12.091 49.6096 15.0137 50.5965 16.7152C51.0043 17.4166 50.7557 18.3127 50.0428 18.7125C49.812 18.8443 49.5575 18.9058 49.3075 18.9058Z" fill="url(#paint5_linear_507_1146)"/>
<path d="M39.8635 49.4884C39.8442 49.4884 39.8263 49.4884 39.8069 49.4884C38.8305 49.4825 36.9253 49.481 34.5065 49.481C26.7665 49.4781 13.8123 49.4737 9.07303 49.2819C3.80235 49.071 3.75026 43.9842 3.73091 42.0689C3.68179 37.3569 3.76365 29.5743 3.81873 24.4244L3.8485 21.5588C3.85594 20.7535 4.52128 20.1077 5.33697 20.1077C5.34143 20.1077 5.34589 20.1077 5.35036 20.1077C6.172 20.115 6.83288 20.7769 6.82544 21.5852L6.79567 24.4552C6.74059 29.5933 6.66021 37.3583 6.70785 42.0411C6.74059 45.2727 7.32258 46.2816 9.19508 46.3563C13.8748 46.5452 26.7918 46.5496 34.5095 46.5525C36.9357 46.5525 38.8469 46.554 39.8263 46.5598C40.895 46.5964 41.7018 46.3124 42.2391 45.7867C43.1173 44.9286 43.3019 43.3472 43.3019 42.1714C43.3019 40.3118 43.2795 36.4197 43.2587 32.5116C43.2364 28.5053 43.2141 24.4815 43.2155 22.6146C43.2155 21.8048 43.8824 21.1503 44.704 21.1503C45.5271 21.1503 46.1925 21.8063 46.1925 22.6146C46.191 24.4786 46.2148 28.4951 46.2357 32.4955C46.258 36.4095 46.2788 40.3088 46.2788 42.1699C46.2788 44.6885 45.6269 46.6023 44.3378 47.863C43.2334 48.9422 41.7301 49.4884 39.8635 49.4884Z" fill="url(#paint6_linear_507_1146)"/>
<path d="M17.5027 49.4326C16.6989 49.4326 16.038 48.803 16.0157 48.0079C15.9145 44.4204 15.968 40.953 16.0276 38.3334C16.0678 36.5119 16.2583 34.62 17.3642 33.125C17.7438 32.6096 18.5133 31.9712 21.1048 31.5787C24.2841 31.0999 29.9552 31.0882 32.0257 32.5949C34.0976 34.1017 34.4221 36.9907 34.4325 38.5794C34.4414 40.0159 34.4385 41.5914 34.434 43.1626C34.431 44.7704 34.4266 46.3723 34.437 47.8175C34.4429 48.6273 33.7806 49.2862 32.9589 49.292C32.9545 49.292 32.9515 49.292 32.9485 49.292C32.1299 49.292 31.466 48.6434 31.46 47.838C31.4496 46.3855 31.4541 44.7733 31.4571 43.1582C31.4615 41.5958 31.4645 40.0261 31.4556 38.5985C31.4437 36.8545 30.9956 35.4898 30.2544 34.951C28.7987 33.8908 21.1464 34.0724 19.7086 34.9363C19.14 35.7841 19.0313 37.1005 19.003 38.3993C18.945 40.9852 18.8914 44.4043 18.9911 47.9288C19.0149 48.7371 18.3675 49.4107 17.5443 49.4326C17.5309 49.4326 17.5161 49.4326 17.5027 49.4326Z" fill="url(#paint7_linear_507_1146)"/>
<defs>
<linearGradient id="paint0_linear_507_1146" x1="-1.62624" y1="16.8764" x2="5.82744" y2="30.6021" gradientUnits="userSpaceOnUse">
<stop stop-color="#056CB7"/>
<stop offset="1" stop-color="#8912B2"/>
</linearGradient>
<linearGradient id="paint1_linear_507_1146" x1="28.6639" y1="16.8769" x2="36.117" y2="30.6018" gradientUnits="userSpaceOnUse">
<stop stop-color="#056CB7"/>
<stop offset="1" stop-color="#8912B2"/>
</linearGradient>
<linearGradient id="paint2_linear_507_1146" x1="14.8881" y1="18.1153" x2="20.7988" y2="29.8173" gradientUnits="userSpaceOnUse">
<stop stop-color="#056CB7"/>
<stop offset="1" stop-color="#8912B2"/>
</linearGradient>
<linearGradient id="paint3_linear_507_1146" x1="6.42658" y1="0.921003" x2="7.28436" y2="7.57659" gradientUnits="userSpaceOnUse">
<stop stop-color="#056CB7"/>
<stop offset="1" stop-color="#8912B2"/>
</linearGradient>
<linearGradient id="paint4_linear_507_1146" x1="-0.956264" y1="2.57727" x2="14.8056" y2="10.0079" gradientUnits="userSpaceOnUse">
<stop stop-color="#056CB7"/>
<stop offset="1" stop-color="#8912B2"/>
</linearGradient>
<linearGradient id="paint5_linear_507_1146" x1="37.8271" y1="2.50149" x2="53.5875" y2="9.93061" gradientUnits="userSpaceOnUse">
<stop stop-color="#056CB7"/>
<stop offset="1" stop-color="#8912B2"/>
</linearGradient>
<linearGradient id="paint6_linear_507_1146" x1="0.323434" y1="23.147" x2="33.1064" y2="57.2569" gradientUnits="userSpaceOnUse">
<stop stop-color="#056CB7"/>
<stop offset="1" stop-color="#8912B2"/>
</linearGradient>
<linearGradient id="paint7_linear_507_1146" x1="14.4861" y1="33.1688" x2="33.793" y2="47.2945" gradientUnits="userSpaceOnUse">
<stop stop-color="#056CB7"/>
<stop offset="1" stop-color="#8912B2"/>
</linearGradient>
</defs>
</svg>
