<svg width="57" height="56" viewBox="0 0 57 56" fill="none" xmlns="http://www.w3.org/2000/svg">
<path fill-rule="evenodd" clip-rule="evenodd" d="M22.1566 5.85311C22.1566 2.6205 24.98 0 28.4627 0C31.9454 0 34.7688 2.6205 34.7688 5.85311C34.7688 8.70711 32.568 11.084 29.6557 11.6016V15.8192H42.0975C46.5217 15.8192 50.108 19.148 50.108 23.2542V32.7458C50.108 36.8521 46.5217 40.1808 42.0975 40.1808H29.6557V44.2938H48.9149C53.3391 44.2938 56.9254 47.6225 56.9254 51.7288V56H0V51.7288C0 47.6225 3.58641 44.2938 8.01046 44.2938H27.2697V40.1808H14.8279C10.4038 40.1808 6.81741 36.8521 6.81741 32.7458V23.2542C6.81741 19.148 10.4038 15.8192 14.8279 15.8192H27.2697V11.6016C24.3574 11.084 22.1566 8.70711 22.1566 5.85311ZM28.4627 2.21469C26.2978 2.21469 24.5427 3.84367 24.5427 5.85311C24.5427 7.86254 26.2978 9.49153 28.4627 9.49153C30.6276 9.49153 32.3827 7.86254 32.3827 5.85311C32.3827 3.84367 30.6276 2.21469 28.4627 2.21469ZM14.8279 18.0339C11.7216 18.0339 9.20351 20.3711 9.20351 23.2542V32.7458C9.20351 35.629 11.7216 37.9661 14.8279 37.9661H42.0975C45.2039 37.9661 47.7219 35.629 47.7219 32.7458V23.2542C47.7219 20.3711 45.2039 18.0339 42.0975 18.0339H14.8279ZM21.6453 25.9435C20.4216 25.9435 19.4296 26.8642 19.4296 28C19.4296 29.1358 20.4216 30.0565 21.6453 30.0565C22.869 30.0565 23.8609 29.1358 23.8609 28C23.8609 26.8642 22.869 25.9435 21.6453 25.9435ZM17.0435 28C17.0435 25.641 19.1038 23.7288 21.6453 23.7288C24.1868 23.7288 26.247 25.641 26.247 28C26.247 30.359 24.1868 32.2712 21.6453 32.2712C19.1038 32.2712 17.0435 30.359 17.0435 28ZM35.2801 25.9435C34.0564 25.9435 33.0645 26.8642 33.0645 28C33.0645 29.1358 34.0564 30.0565 35.2801 30.0565C36.5038 30.0565 37.4958 29.1358 37.4958 28C37.4958 26.8642 36.5038 25.9435 35.2801 25.9435ZM30.6784 28C30.6784 25.641 32.7386 23.7288 35.2801 23.7288C37.8216 23.7288 39.8819 25.641 39.8819 28C39.8819 30.359 37.8216 32.2712 35.2801 32.2712C32.7386 32.2712 30.6784 30.359 30.6784 28ZM8.01046 46.5085C4.90419 46.5085 2.38609 48.8456 2.38609 51.7288V53.7853H54.5393V51.7288C54.5393 48.8456 52.0213 46.5085 48.9149 46.5085H8.01046Z" fill="url(#paint0_linear_562_604)"/>
<defs>
<linearGradient id="paint0_linear_562_604" x1="-4.53711" y1="5.79298" x2="55.0254" y2="49.2792" gradientUnits="userSpaceOnUse">
<stop stop-color="#056CB7"/>
<stop offset="1" stop-color="#8912B2"/>
</linearGradient>
</defs>
</svg>
