<svg width="57" height="56" viewBox="0 0 57 56" fill="none" xmlns="http://www.w3.org/2000/svg">
<path d="M56.9249 31.8632C56.9242 31.792 56.9145 31.7207 56.8959 31.6503C56.8936 31.6417 56.891 31.6333 56.8884 31.6249C56.8806 31.5989 56.8715 31.5732 56.8611 31.5476C56.8575 31.5385 56.8541 31.5296 56.8501 31.5206C56.8375 31.4923 56.8233 31.4644 56.8074 31.4369C56.8052 31.4331 56.8035 31.4289 56.8011 31.4251C56.7814 31.3921 56.7613 31.3637 56.7402 31.3363C56.7352 31.3299 56.7298 31.3239 56.7246 31.3177C56.7064 31.2954 56.6872 31.2741 56.6671 31.2538C56.6606 31.2473 56.654 31.2409 56.6472 31.2344C56.6244 31.2129 56.6008 31.1925 56.576 31.1735C56.5718 31.1703 56.568 31.1669 56.5638 31.1638C56.5338 31.1416 56.5027 31.1214 56.4705 31.103C56.4657 31.0999 43.1567 23.6137 43.1567 23.6137V8.6382C43.1567 8.63511 43.1561 8.63225 43.1561 8.62915C43.1553 8.55802 43.1457 8.48665 43.1271 8.41623C43.1247 8.40765 43.1221 8.39931 43.1195 8.39085C43.1118 8.36488 43.1026 8.33914 43.0923 8.31352C43.0887 8.30447 43.0852 8.29553 43.0813 8.2866C43.0687 8.25824 43.0545 8.23036 43.0386 8.20283C43.0364 8.19902 43.0346 8.19485 43.0323 8.19104C43.0126 8.15792 42.9924 8.12956 42.9712 8.10215C42.9664 8.09596 42.9611 8.09012 42.9562 8.08404C42.9376 8.0614 42.9183 8.03984 42.898 8.01946C42.8917 8.01315 42.8854 8.00695 42.8789 8.00088C42.8557 7.97883 42.8315 7.95798 42.8062 7.93868C42.8026 7.93594 42.7993 7.93284 42.7956 7.93022C42.7654 7.9077 42.7339 7.88733 42.7013 7.86874C42.6973 7.86612 28.9285 0.121442 28.9285 0.121442C28.6405 -0.0404808 28.2847 -0.0404808 27.9967 0.121442L14.2281 7.86612C14.1915 7.88733 14.1598 7.90794 14.1293 7.93046C14.126 7.93296 14.1229 7.9357 14.1195 7.93832C14.094 7.95786 14.0696 7.97883 14.0461 8.00111C14.0397 8.00719 14.0335 8.01327 14.0272 8.01958C14.0069 8.04008 13.9875 8.06176 13.969 8.0844C13.9641 8.09048 13.9587 8.0962 13.9539 8.10239C13.9327 8.1298 13.9126 8.15815 13.8943 8.18842C13.8905 8.19509 13.8888 8.19914 13.8866 8.20307C13.8706 8.2306 13.8564 8.25848 13.8439 8.28683C13.8399 8.29565 13.8365 8.30471 13.8329 8.31376C13.8225 8.33926 13.8134 8.365 13.8056 8.39109C13.803 8.39955 13.8004 8.40789 13.7982 8.41647C13.7794 8.48689 13.7698 8.55826 13.7692 8.62939C13.7692 8.63237 13.7686 8.63534 13.7686 8.63844V23.6141L0.459557 31.1001C0.422536 31.1216 0.391315 31.1419 0.361328 31.1641C0.357255 31.1672 0.35343 31.1706 0.349357 31.1737C0.324553 31.1927 0.30086 31.2131 0.27803 31.2347C0.271366 31.241 0.264702 31.2474 0.258285 31.254C0.23817 31.2742 0.219043 31.2955 0.200779 31.3178C0.195596 31.3241 0.190166 31.3301 0.18523 31.3365C0.164128 31.3638 0.144013 31.3922 0.125749 31.4223C0.121923 31.429 0.120196 31.433 0.117974 31.437C0.102055 31.4645 0.0878638 31.4924 0.0752766 31.5207C0.0713277 31.5296 0.0678723 31.5386 0.0642936 31.5477C0.0539276 31.5732 0.0447957 31.5989 0.0370212 31.625C0.0344298 31.6335 0.0318383 31.6418 0.029617 31.6504C0.0108595 31.7208 0.00123406 31.7922 0.000617035 31.8633C0.000617035 31.8663 0 31.8693 0 31.8724V47.3617C0 47.6797 0.175111 47.9738 0.459681 48.1338L14.2283 55.8785C14.2309 55.8799 14.2337 55.8808 14.2363 55.8823C14.2694 55.9005 14.3035 55.9172 14.3391 55.9315C14.3736 55.9453 14.4084 55.9563 14.444 55.9659C14.4527 55.9683 14.4616 55.9703 14.4705 55.9725C14.4983 55.9791 14.5265 55.9845 14.5553 55.9887C14.5648 55.9901 14.574 55.9918 14.5835 55.9929C14.6199 55.997 14.6567 55.9999 14.6942 55.9999C14.7318 55.9999 14.7687 55.9971 14.8049 55.9929C14.8144 55.9918 14.8237 55.9901 14.8332 55.9887C14.8619 55.9845 14.8902 55.9791 14.918 55.9725C14.9269 55.9703 14.9357 55.9683 14.9445 55.9659C14.98 55.9563 15.0148 55.9453 15.0485 55.9318C15.0848 55.9173 15.119 55.9006 15.1521 55.8823C15.1547 55.8808 15.1575 55.8799 15.1601 55.8785L28.4627 48.3958L41.7654 55.8785C41.768 55.8799 41.7709 55.8808 41.7735 55.8823C41.8065 55.9005 41.8406 55.9172 41.8761 55.9315C41.9108 55.9453 41.9455 55.9563 41.9809 55.9659C41.9898 55.9683 41.9987 55.9704 42.0075 55.9726C42.0353 55.9793 42.0635 55.9846 42.0922 55.9888C42.1017 55.9902 42.1111 55.9919 42.1206 55.993C42.157 55.9971 42.1938 56 42.2313 56C42.2688 56 42.3056 55.9973 42.342 55.993C42.3515 55.9919 42.3609 55.9902 42.3704 55.9888C42.399 55.9846 42.4272 55.9793 42.455 55.9726C42.4639 55.9704 42.4728 55.9684 42.4817 55.9659C42.5171 55.9563 42.5519 55.9453 42.5854 55.9318C42.622 55.9172 42.656 55.9005 42.6891 55.8823C42.6917 55.8808 42.6945 55.8799 42.6971 55.8785L56.4657 48.1338C56.7503 47.9737 56.9254 47.6796 56.9254 47.3617V31.8724C56.9254 31.8691 56.9249 31.8663 56.9249 31.8632ZM54.1613 31.8722L42.2313 38.5827L30.3013 31.8722L42.2313 25.1618L54.1613 31.8722ZM15.6196 10.193L27.5372 16.8964V30.3173L15.6196 23.6139V10.193ZM41.3057 23.6139L29.3882 30.3175V16.8965L41.3057 10.1931V23.6139ZM27.5372 46.8479L15.6196 53.5515V40.1306L27.5372 33.4271V46.8479ZM29.3882 33.427L41.3057 40.1304V53.5514L29.3882 46.8479V33.427ZM28.4627 1.92774L40.3927 8.6382L28.4627 15.3487L16.5327 8.6382L28.4627 1.92774ZM14.6941 25.1618L26.6241 31.8722L14.6941 38.5827L2.76413 31.8722L14.6941 25.1618ZM1.85106 33.427L13.7686 40.1304V53.5514L1.85106 46.8478V33.427ZM43.1568 53.5515V40.1306L55.0743 33.4271V46.8481L43.1568 53.5515Z" fill="url(#paint0_linear_562_943)"/>
<defs>
<linearGradient id="paint0_linear_562_943" x1="-4.53711" y1="5.79298" x2="55.0254" y2="49.2792" gradientUnits="userSpaceOnUse">
<stop stop-color="#056CB7"/>
<stop offset="1" stop-color="#8912B2"/>
</linearGradient>
</defs>
</svg>
