<svg width="57" height="56" viewBox="0 0 57 56" fill="none" xmlns="http://www.w3.org/2000/svg">
<g clip-path="url(#clip0_507_1603)">
<path d="M56.0358 53.375H54.2568V55.125H56.0358V53.375Z" fill="url(#paint0_linear_507_1603)"/>
<path d="M2.66857 53.375H0.889648V55.125H2.66857V53.375Z" fill="url(#paint1_linear_507_1603)"/>
<path d="M28.4633 24.5C29.9345 24.5 31.1317 23.3222 31.1317 21.875C31.1317 20.4277 29.9345 19.25 28.4633 19.25C26.9921 19.25 25.7949 20.4277 25.7949 21.875C25.7949 23.3222 26.9921 24.5 28.4633 24.5ZM28.4633 21C28.9543 21 29.3528 21.392 29.3528 21.875C29.3528 22.358 28.9543 22.75 28.4633 22.75C27.9723 22.75 27.5738 22.358 27.5738 21.875C27.5738 21.392 27.9723 21 28.4633 21Z" fill="url(#paint2_linear_507_1603)"/>
<path d="M38.8667 20.125L46.8718 25.375H48.9202V20.9116C50.9473 20.5047 52.4781 18.7381 52.4781 16.625C52.4781 14.5119 50.9473 12.7452 48.9202 12.3384V7.875H46.8718L38.8667 13.125H36.128L34.3491 9.625H29.3521V5.964C30.3848 5.60175 31.131 4.63925 31.131 3.5C31.131 2.05275 29.9338 0.875 28.4627 0.875C26.9915 0.875 25.7943 2.05275 25.7943 3.5C25.7943 4.63925 26.5405 5.60175 27.5732 5.964V9.625H22.5762L20.7973 13.125H18.0587L10.0535 7.875H8.0051V12.3384C5.97803 12.7452 4.44727 14.5127 4.44727 16.625C4.44727 18.7372 5.97803 20.5047 8.0051 20.9116V25.375H10.0535L18.0587 20.125H18.5745L15.2142 49.875H14.2313C12.0842 49.875 10.2875 51.3809 9.87386 53.375H4.44727V55.125H52.4781V53.375H47.0515C46.6379 51.3809 44.8421 49.875 42.694 49.875H41.7112L38.3508 20.125H38.8667ZM28.4627 2.625C28.9536 2.625 29.3521 3.017 29.3521 3.5C29.3521 3.983 28.9536 4.375 28.4627 4.375C27.9717 4.375 27.5732 3.983 27.5732 3.5C27.5732 3.017 27.9717 2.625 28.4627 2.625ZM50.6992 16.625C50.6992 17.7642 49.9529 18.7267 48.9202 19.089V14.1619C49.9529 14.5232 50.6992 15.4858 50.6992 16.625ZM47.1413 9.80175V23.4482L40.0256 18.7819V14.4681L47.1413 9.80175ZM23.6756 11.375H33.2497L34.1392 13.125H22.7861L23.6756 11.375ZM18.6786 14.875H38.2467V18.375H33.5646C32.4377 16.7904 30.5725 15.75 28.4627 15.75C26.3529 15.75 24.4877 16.7904 23.3607 18.375H18.6786V14.875ZM19.2114 37.625L28.4627 33.3419L37.713 37.625H19.2114ZM37.7139 39.375L28.4627 43.6572L19.2114 39.375H37.7139ZM18.5728 35.9852L19.3484 29.1226L26.3724 32.375L18.5728 35.9852ZM26.3733 44.625L17.1132 48.9116L18.0338 40.7645L26.3733 44.625ZM28.4627 45.5928L37.7139 49.875H19.2114L28.4627 45.5928ZM30.5529 44.625L38.8925 40.7645L39.8131 48.9116L30.5529 44.625ZM30.552 32.375L37.577 29.1226L38.3526 35.9861L30.552 32.375ZM37.3697 27.2842L28.4627 31.4073L19.5556 27.2834L19.5939 26.9474L23.27 25.2455C24.3854 26.9036 26.2959 28 28.4627 28C30.6294 28 32.5399 26.9036 33.6553 25.2464L37.3315 26.9482L37.3697 27.2842ZM24.0154 21.875C24.0154 19.4626 26.0104 17.5 28.4627 17.5C30.9149 17.5 32.91 19.4626 32.91 21.875C32.91 24.2874 30.9149 26.25 28.4627 26.25C26.0104 26.25 24.0154 24.2874 24.0154 21.875ZM6.22618 16.625C6.22618 15.4858 6.97244 14.5232 8.0051 14.161V19.0881C6.97244 18.7268 6.22618 17.7642 6.22618 16.625ZM9.78402 23.4482V9.80175L16.8997 14.4681V18.7819L9.78402 23.4482ZM22.4988 20.125C22.3298 20.6798 22.2365 21.2669 22.2365 21.875C22.2365 22.4971 22.3325 23.0974 22.5086 23.6635L19.8242 24.906L20.3641 20.125H22.4988ZM45.1987 53.375H11.7266C12.0948 52.3591 13.0732 51.625 14.2313 51.625H42.694C43.8521 51.625 44.8305 52.3591 45.1987 53.375ZM37.1011 24.906L34.4167 23.6635C34.5928 23.0974 34.6889 22.4971 34.6889 21.875C34.6889 21.2669 34.5955 20.6798 34.4265 20.125H36.5612L37.1011 24.906Z" fill="url(#paint3_linear_507_1603)"/>
</g>
<defs>
<linearGradient id="paint0_linear_507_1603" x1="54.1151" y1="53.556" x2="55.9764" y2="54.915" gradientUnits="userSpaceOnUse">
<stop stop-color="#056CB7"/>
<stop offset="1" stop-color="#8912B2"/>
</linearGradient>
<linearGradient id="paint1_linear_507_1603" x1="0.747864" y1="53.556" x2="2.60919" y2="54.915" gradientUnits="userSpaceOnUse">
<stop stop-color="#056CB7"/>
<stop offset="1" stop-color="#8912B2"/>
</linearGradient>
<linearGradient id="paint2_linear_507_1603" x1="25.3696" y1="19.7931" x2="30.9535" y2="23.8699" gradientUnits="userSpaceOnUse">
<stop stop-color="#056CB7"/>
<stop offset="1" stop-color="#8912B2"/>
</linearGradient>
<linearGradient id="paint3_linear_507_1603" x1="0.61908" y1="6.48695" x2="55.4799" y2="41.3723" gradientUnits="userSpaceOnUse">
<stop stop-color="#056CB7"/>
<stop offset="1" stop-color="#8912B2"/>
</linearGradient>
<clipPath id="clip0_507_1603">
<rect width="56.9254" height="56" fill="white"/>
</clipPath>
</defs>
</svg>
