<svg width="75" height="57" viewBox="0 0 75 57" fill="none" xmlns="http://www.w3.org/2000/svg">
<path d="M74.9223 28.9161C74.9047 28.9594 74.6223 29.6731 74.0551 30.8473C71.0118 37.1403 59.7887 56.6204 37.4997 56.6204C11.0528 56.6204 0.184814 29.1938 0.077002 28.9161C-0.0272949 28.6454 -0.0272949 28.3454 0.077002 28.0735C0.184814 27.7969 11.0528 0.370361 37.4997 0.370361C59.777 0.370361 71.0001 19.8293 74.0493 26.1317C74.6188 27.3118 74.9036 28.0301 74.9212 28.0735C75.0254 28.3454 75.0254 28.6454 74.9223 28.9161ZM37.4997 2.71411C14.4301 2.71411 3.8938 25.1239 2.44067 28.4965C3.89146 31.8739 14.3997 54.2766 37.4997 54.2766C60.5692 54.2766 71.1055 31.8668 72.5587 28.4942C71.1079 25.1168 60.5997 2.71411 37.4997 2.71411Z" fill="white"/>
<path d="M37.5 47.2407C27.1441 47.2407 18.75 38.8466 18.75 28.4907C18.75 18.1349 27.1441 9.74072 37.5 9.74072C47.8559 9.74072 56.25 18.1349 56.25 28.4907C56.25 38.8466 47.8559 47.2407 37.5 47.2407ZM37.5 12.0845C28.4391 12.0845 21.0938 19.4298 21.0938 28.4907C21.0938 37.5517 28.4391 44.897 37.5 44.897C46.5609 44.897 53.9062 37.5517 53.9062 28.4907C53.9062 19.4298 46.5609 12.0845 37.5 12.0845Z" fill="white"/>
<path d="M37.5 37.8657C32.3227 37.8657 28.125 33.6681 28.125 28.4907C28.125 23.3134 32.3227 19.1157 37.5 19.1157C42.6773 19.1157 46.875 23.3134 46.875 28.4907C46.875 33.6681 42.6773 37.8657 37.5 37.8657ZM37.5 21.4595C33.6176 21.4595 30.4688 24.6083 30.4688 28.4907C30.4688 32.3731 33.6176 35.522 37.5 35.522C41.3824 35.522 44.5312 32.3731 44.5312 28.4907C44.5312 24.6083 41.3824 21.4595 37.5 21.4595Z" fill="white"/>
<path d="M37.5 33.1829C36.852 33.1829 36.3281 32.659 36.3281 32.011C36.3281 31.3629 36.852 30.8391 37.5 30.8391C38.7937 30.8391 39.8438 29.7891 39.8438 28.4954C39.8438 27.8473 40.3676 27.3235 41.0156 27.3235C41.6637 27.3235 42.1875 27.8473 42.1875 28.4954C42.1875 31.084 40.0887 33.1829 37.5 33.1829Z" fill="white"/>
</svg>
