<svg width="33" height="34" viewBox="0 0 33 34" fill="none" xmlns="http://www.w3.org/2000/svg">
<g clip-path="url(#clip0_874_3481)">
<path d="M25.0468 19.6885C24.8578 19.4984 24.6329 19.3476 24.3852 19.2449C24.1375 19.1423 23.8719 19.0898 23.6038 19.0905H20.4104C20.2553 19.0905 20.1038 19.1376 19.9761 19.2257C19.8484 19.3138 19.7505 19.4387 19.6954 19.5837L19.521 20.0426C19.5099 20.0717 19.493 20.0982 19.4713 20.1205C19.4496 20.1429 19.4236 20.1606 19.3949 20.1726C19.3731 20.1824 19.3495 20.1875 19.3257 20.1875C19.3018 20.1875 19.2782 20.1824 19.2565 20.1726C17.7356 19.483 16.5171 18.2644 15.8275 16.7436C15.8179 16.7218 15.8129 16.6982 15.8129 16.6744C15.8129 16.6506 15.8179 16.627 15.8275 16.6052C15.8394 16.5763 15.8571 16.5501 15.8794 16.5283C15.9018 16.5065 15.9283 16.4895 15.9575 16.4783L16.4163 16.3039C16.5615 16.249 16.6865 16.1511 16.7748 16.0234C16.863 15.8957 16.9103 15.7441 16.9103 15.5889V12.3932C16.9111 12.1259 16.8588 11.8611 16.7564 11.6142C16.654 11.3673 16.5036 11.1431 16.3139 10.9548C16.1203 10.762 15.8903 10.6095 15.6374 10.5062C15.3844 10.4029 15.1135 10.3508 14.8403 10.353H14.7164C14.2426 10.3542 13.7737 10.4487 13.3364 10.6311C12.8991 10.8135 12.5021 11.0803 12.1679 11.4162C11.8337 11.7521 11.569 12.1505 11.3888 12.5887C11.2086 13.0268 11.1165 13.4962 11.1177 13.97C11.1177 14.0786 11.1177 14.188 11.1246 14.2958C11.2314 17.0677 12.3804 19.6972 14.342 21.6586C16.3035 23.6201 18.9331 24.7689 21.705 24.8755C21.8236 24.8824 21.939 24.8824 22.053 24.8824C23.0065 24.88 23.9202 24.4997 24.5939 23.8248C25.2676 23.15 25.6463 22.2357 25.6471 21.2821V21.1292C25.6473 20.8613 25.5944 20.596 25.4913 20.3487C25.3883 20.1014 25.2372 19.877 25.0468 19.6885ZM24.1177 21.1307V21.2837C24.1178 21.5577 24.0633 21.8289 23.9575 22.0817C23.8517 22.3344 23.6966 22.5635 23.5013 22.7557C23.3114 22.9461 23.0856 23.0969 22.837 23.1994C22.5884 23.302 22.3219 23.3541 22.053 23.353C21.9559 23.353 21.858 23.353 21.7578 23.3469C19.3731 23.2537 17.1113 22.2642 15.4243 20.5761C13.7373 18.888 12.7494 16.6255 12.6578 14.2407C12.654 14.1467 12.6525 14.0526 12.6517 13.9586C12.65 13.6888 12.7021 13.4215 12.8047 13.172C12.9074 12.9226 13.0587 12.6961 13.2497 12.5056C13.4409 12.3096 13.6691 12.1535 13.9212 12.0465C14.1733 11.9395 14.4441 11.8837 14.7179 11.8824H14.8449C14.917 11.8809 14.9887 11.8937 15.0558 11.9199C15.123 11.9461 15.1844 11.9854 15.2364 12.0353C15.2832 12.0819 15.3202 12.1374 15.3454 12.1984C15.3706 12.2594 15.3835 12.3249 15.3832 12.3909V15.062C15.1662 15.1497 14.9689 15.2798 14.8027 15.4446C14.6365 15.6093 14.5047 15.8055 14.4151 16.0217C14.3248 16.2366 14.2799 16.4679 14.2834 16.701C14.2868 16.934 14.3384 17.1639 14.435 17.376C15.2772 19.2346 16.7663 20.7236 18.6248 21.5659C18.8368 21.6625 19.0665 21.7141 19.2995 21.7175C19.5324 21.7209 19.7636 21.6761 19.9783 21.5857C20.1945 21.4961 20.3908 21.3644 20.5555 21.1982C20.7203 21.032 20.8503 20.8346 20.938 20.6176H23.6038C23.7392 20.6178 23.869 20.6717 23.9648 20.7675C24.0605 20.8632 24.1144 20.993 24.1146 21.1284L24.1177 21.1307Z" fill="#444444"/>
<path d="M18 5.76472C15.8807 5.76245 13.7972 6.31131 11.954 7.35742C10.1108 8.40353 8.57136 9.91094 7.48669 11.7317C6.40201 13.5524 5.80943 15.6239 5.76709 17.7428C5.72475 19.8618 6.23412 21.9553 7.24519 23.8179L5.79225 29.2733C5.75768 29.4029 5.75779 29.5392 5.79256 29.6688C5.82734 29.7983 5.89556 29.9164 5.99038 30.0112C6.0852 30.106 6.20329 30.1742 6.3328 30.209C6.46231 30.2438 6.59869 30.2439 6.72825 30.2093L12.1837 28.7564C13.8219 29.6445 15.6414 30.1467 17.5033 30.2246C19.3652 30.3025 21.2203 29.9541 22.927 29.206C24.6337 28.4578 26.147 27.3297 27.3514 25.9077C28.5558 24.4857 29.4195 22.8073 29.8765 21.0007C30.3335 19.1941 30.3719 17.307 29.9886 15.4833C29.6052 13.6597 28.8104 11.9476 27.6648 10.4779C26.5191 9.00816 25.0529 7.81953 23.3779 7.00271C21.7029 6.18589 19.8635 5.76245 18 5.76472ZM18 28.7059C16.1276 28.7035 14.2886 28.2096 12.667 27.2736C12.5507 27.2065 12.4188 27.1711 12.2846 27.1711C12.2182 27.1711 12.1521 27.1798 12.0881 27.1971L7.60843 28.3916L8.8029 23.912C8.85498 23.7165 8.82749 23.5083 8.72643 23.3331C7.55423 21.2911 7.08829 18.9195 7.40082 16.5858C7.71336 14.2522 8.78692 12.0868 10.4551 10.4252C12.1233 8.76363 14.293 7.69871 16.6279 7.39547C18.9628 7.09224 21.3325 7.56763 23.3698 8.74797C25.4071 9.9283 26.9981 11.7477 27.8964 13.9241C28.7947 16.1005 28.95 18.5124 28.3382 20.7861C27.7265 23.0597 26.3819 25.0681 24.5128 26.5C22.6437 27.9318 20.3545 28.7072 18 28.7059Z" fill="#444444"/>
</g>
<defs>
<clipPath id="clip0_874_3481">
<rect width="26" height="26" fill="white" transform="translate(5 5)"/>
</clipPath>
</defs>
</svg>
